<svg xmlns="http://www.w3.org/2000/svg" style="display:none">
    <symbol id="ic-menu" viewBox="0 0 16 16">
      <g fill="currentColor"><path d="M15,7H1C0.4,7,0,7.4,0,8s0.4,1,1,1h14c0.6,0,1-0.4,1-1S15.6,7,15,7z"></path><path d="M15,1H1C0.4,1,0,1.4,0,2s0.4,1,1,1h14c0.6,0,1-0.4,1-1S15.6,1,15,1z"></path><path d="M15,13H1c-0.6,0-1,0.4-1,1s0.4,1,1,1h14c0.6,0,1-0.4,1-1S15.6,13,15,13z"></path></g>
    </symbol>
    <symbol id="ic-close" viewBox="0 0 16 16">
      <g fill="currentColor"><path d="M14.7,1.3c-0.4-0.4-1-0.4-1.4,0L8,6.6L2.7,1.3c-0.4-0.4-1-0.4-1.4,0s-0.4,1,0,1.4L6.6,8l-5.3,5.3 c-0.4,0.4-0.4,1,0,1.4C1.5,14.9,1.7,15,2,15s0.5-0.1,0.7-0.3L8,9.4l5.3,5.3c0.2,0.2,0.5,0.3,0.7,0.3s0.5-0.1,0.7-0.3 c0.4-0.4,0.4-1,0-1.4L9.4,8l5.3-5.3C15.1,2.3,15.1,1.7,14.7,1.3z"></path></g>
    </symbol>
    <symbol id="ic-twitch" viewBox="0 0 16 16">
      <g fill="currentColor"><path d="M1.433,0,.358,2.746V14H4v2H6.328l2.03-2h3.1l4.179-4.209V0ZM14.209,9.075l-2.388,2.388H8l-2,2.03v-2.03H2.746V1.433H14.209Z"></path> <rect x="10.388" y="4.179" width="1.433" height="4.175"></rect> <rect x="6.567" y="4.179" width="1.433" height="4.175"></rect></g>
    </symbol>
    <symbol id="ic-discord" viewBox="0 0 640 512">
      <g fill="currentColor"><path d="M524.531 69.836a1.5 1.5 0 0 0-.764-.7A485.065 485.065 0 0 0 404.081 32.03a1.816 1.816 0 0 0-1.923.91 337.461 337.461 0 0 0-14.9 30.6 447.848 447.848 0 0 0-134.426 0 309.541 309.541 0 0 0-15.135-30.6 1.89 1.89 0 0 0-1.924-.91 483.689 483.689 0 0 0-119.688 37.107 1.712 1.712 0 0 0-.788.676C39.068 183.651 18.186 294.69 28.43 404.354a2.016 2.016 0 0 0 .765 1.375 487.666 487.666 0 0 0 146.825 74.189 1.9 1.9 0 0 0 2.063-.676A348.2 348.2 0 0 0 208.12 430.4a1.86 1.86 0 0 0-1.019-2.588 321.173 321.173 0 0 1-45.868-21.853 1.885 1.885 0 0 1-.185-3.126 251.047 251.047 0 0 0 9.109-7.137 1.819 1.819 0 0 1 1.9-.256c96.229 43.917 200.41 43.917 295.5 0a1.812 1.812 0 0 1 1.924.233 234.533 234.533 0 0 0 9.132 7.16 1.884 1.884 0 0 1-.162 3.126 301.407 301.407 0 0 1-45.89 21.83 1.875 1.875 0 0 0-1 2.611 391.055 391.055 0 0 0 30.014 48.815 1.864 1.864 0 0 0 2.063.7A486.048 486.048 0 0 0 610.7 405.729a1.882 1.882 0 0 0 .765-1.352c12.264-126.783-20.532-236.912-86.934-334.541zM222.491 337.58c-28.972 0-52.844-26.587-52.844-59.239s23.409-59.241 52.844-59.241c29.665 0 53.306 26.82 52.843 59.239 0 32.654-23.41 59.241-52.843 59.241zm195.38 0c-28.971 0-52.843-26.587-52.843-59.239s23.409-59.241 52.843-59.241c29.667 0 53.307 26.82 52.844 59.239 0 32.654-23.177 59.241-52.844 59.241z"></path></g>
    </symbol>
    <symbol id="ic-instagram" viewBox="0 0 448 512">
      <g fill="currentColor"><path d="M224.1 141c-63.6 0-114.9 51.3-114.9 114.9s51.3 114.9 114.9 114.9S339 319.5 339 255.9 287.7 141 224.1 141zm0 189.6c-41.1 0-74.7-33.5-74.7-74.7s33.5-74.7 74.7-74.7 74.7 33.5 74.7 74.7-33.6 74.7-74.7 74.7zm146.4-194.3c0 14.9-12 26.8-26.8 26.8-14.9 0-26.8-12-26.8-26.8s12-26.8 26.8-26.8 26.8 12 26.8 26.8zm76.1 27.2c-1.7-35.9-9.9-67.7-36.2-93.9-26.2-26.2-58-34.4-93.9-36.2-37-2.1-147.9-2.1-184.9 0-35.8 1.7-67.6 9.9-93.9 36.1s-34.4 58-36.2 93.9c-2.1 37-2.1 147.9 0 184.9 1.7 35.9 9.9 67.7 36.2 93.9s58 34.4 93.9 36.2c37 2.1 147.9 2.1 184.9 0 35.9-1.7 67.7-9.9 93.9-36.2 26.2-26.2 34.4-58 36.2-93.9 2.1-37 2.1-147.8 0-184.8zM398.8 388c-7.8 19.6-22.9 34.7-42.6 42.6-29.5 11.7-99.5 9-132.1 9s-102.7 2.6-132.1-9c-19.6-7.8-34.7-22.9-42.6-42.6-11.7-29.5-9-99.5-9-132.1s-2.6-102.7 9-132.1c7.8-19.6 22.9-34.7 42.6-42.6 29.5-11.7 99.5-9 132.1-9s102.7-2.6 132.1 9c19.6 7.8 34.7 22.9 42.6 42.6 11.7 29.5 9 99.5 9 132.1s2.7 102.7-9 132.1z"></path></g>
    </symbol>
    <symbol id="ic-youtube" viewBox="0 0 576 512">
      <g fill="currentColor"><path d="M549.655 124.083c-6.281-23.65-24.787-42.276-48.284-48.597C458.781 64 288 64 288 64S117.22 64 74.629 75.486c-23.497 6.322-42.003 24.947-48.284 48.597-11.412 42.867-11.412 132.305-11.412 132.305s0 89.438 11.412 132.305c6.281 23.65 24.787 41.5 48.284 47.821C117.22 448 288 448 288 448s170.78 0 213.371-11.486c23.497-6.321 42.003-24.171 48.284-47.821 11.412-42.867 11.412-132.305 11.412-132.305s0-89.438-11.412-132.305zm-317.51 213.508V175.185l142.739 81.205-142.739 81.201z"></path></g>
    </symbol>
    <symbol id="ic-twitter" viewBox="0 0 16 16">
      <g fill="currentColor"><path d="M16,3c-0.6,0.3-1.2,0.4-1.9,0.5c0.7-0.4,1.2-1,1.4-1.8c-0.6,0.4-1.3,0.6-2.1,0.8c-0.6-0.6-1.5-1-2.4-1 C9.3,1.5,7.8,3,7.8,4.8c0,0.3,0,0.5,0.1,0.7C5.2,5.4,2.7,4.1,1.1,2.1c-0.3,0.5-0.4,1-0.4,1.7c0,1.1,0.6,2.1,1.5,2.7 c-0.5,0-1-0.2-1.5-0.4c0,0,0,0,0,0c0,1.6,1.1,2.9,2.6,3.2C3,9.4,2.7,9.4,2.4,9.4c-0.2,0-0.4,0-0.6-0.1c0.4,1.3,1.6,2.3,3.1,2.3 c-1.1,0.9-2.5,1.4-4.1,1.4c-0.3,0-0.5,0-0.8,0c1.5,0.9,3.2,1.5,5,1.5c6,0,9.3-5,9.3-9.3c0-0.1,0-0.3,0-0.4C15,4.3,15.6,3.7,16,3z"></path></g>
    </symbol>
    <symbol id="ic-tiktok" viewBox="0 0 16 16">
      <g fill="currentColor"><path d="M6.793,5.958V8.706a2.392,2.392,0,0,0-3,2.216,2.163,2.163,0,0,0,2.312,2.3,2.155,2.155,0,0,0,2.311-2.326V0h2.719c.463,2.876,1.9,3.544,3.827,3.852V6.608a8.19,8.19,0,0,1-3.75-1.266v5.445C11.21,13.25,9.75,16,6.125,16A5.11,5.11,0,0,1,1.04,10.761,5.01,5.01,0,0,1,6.793,5.958Z"></path></g>
    </symbol>
    <symbol id="ic-facebook" viewBox="0 0 16 16">
      <g fill="currentColor"><path d="M16,8.048a8,8,0,1,0-9.25,7.9V10.36H4.719V8.048H6.75V6.285A2.822,2.822,0,0,1,9.771,3.173a12.2,12.2,0,0,1,1.791.156V5.3H10.554a1.155,1.155,0,0,0-1.3,1.25v1.5h2.219l-.355,2.312H9.25v5.591A8,8,0,0,0,16,8.048Z"></path></g>
    </symbol>
    <symbol id="ic-whastapp" viewBox="0 0 30.667 30.667">
      <g fill="currentColor"> <path d="M30.667,14.939c0,8.25-6.74,14.938-15.056,14.938c-2.639,0-5.118-0.675-7.276-1.857L0,30.667l2.717-8.017 c-1.37-2.25-2.159-4.892-2.159-7.712C0.559,6.688,7.297,0,15.613,0C23.928,0.002,30.667,6.689,30.667,14.939z M15.61,2.382 c-6.979,0-12.656,5.634-12.656,12.56c0,2.748,0.896,5.292,2.411,7.362l-1.58,4.663l4.862-1.545c2,1.312,4.393,2.076,6.963,2.076 c6.979,0,12.658-5.633,12.658-12.559C28.27,8.016,22.59,2.382,15.61,2.382z M23.214,18.38c-0.094-0.151-0.34-0.243-0.708-0.427 c-0.367-0.184-2.184-1.069-2.521-1.189c-0.34-0.123-0.586-0.185-0.832,0.182c-0.243,0.367-0.951,1.191-1.168,1.437 c-0.215,0.245-0.43,0.276-0.799,0.095c-0.369-0.186-1.559-0.57-2.969-1.817c-1.097-0.972-1.838-2.169-2.052-2.536 c-0.217-0.366-0.022-0.564,0.161-0.746c0.165-0.165,0.369-0.428,0.554-0.643c0.185-0.213,0.246-0.364,0.369-0.609 c0.121-0.245,0.06-0.458-0.031-0.643c-0.092-0.184-0.829-1.984-1.138-2.717c-0.307-0.732-0.614-0.611-0.83-0.611 c-0.215,0-0.461-0.03-0.707-0.03S9.897,8.215,9.56,8.582s-1.291,1.252-1.291,3.054c0,1.804,1.321,3.543,1.506,3.787 c0.186,0.243,2.554,4.062,6.305,5.528c3.753,1.465,3.753,0.976,4.429,0.914c0.678-0.062,2.184-0.885,2.49-1.739 C23.307,19.268,23.307,18.533,23.214,18.38z"/> </g>
    </symbol>
    <symbol id="ic-mail" viewBox="0 0 512 512">
      <g fill="currentColor"><path style="display: inline;" d="M170.591,239.406L1.584,429.263c-0.433-1.911-1.084-3.759-1.084-5.852V88.589 c0-2.541,0.71-4.837,1.356-7.144L170.591,239.406z M493.987,65.524c-1.238-0.277-2.424-0.876-3.79-0.876H21.819 c-1.297,0-2.456,0.599-3.769,0.876l237.961,222.734L493.987,65.524z M262.808,313.021c-1.954,1.869-4.372,2.777-6.797,2.777 c-2.419,0-4.842-0.908-6.775-2.777l-62.21-58.217L16.656,446.145c1.698,0.523,3.364,1.207,5.163,1.207h468.378 c1.89,0,3.534-0.684,5.243-1.207L325.082,254.804L262.808,313.021z M341.494,239.406l168.98,189.836 c0.459-1.911,1.025-3.759,1.025-5.831V88.589c0-2.499-0.62-4.837-1.26-7.133L341.494,239.406z"></path></g>
    </symbol>
    <symbol id="ic-arrowl" viewBox="0 0 16 16">
      <g fill="currentColor"><polygon points="6.7,14.7 8.1,13.3 3.8,9 16,9 16,7 3.8,7 8.1,2.7 6.7,1.3 0,8 "></polygon></g>
    </symbol>
    <symbol id="ic-arrowr" viewBox="0 0 16 16">
      <g fill="currentColor"><polygon points="9.3,1.3 7.9,2.7 12.2,7 0,7 0,9 12.2,9 7.9,13.3 9.3,14.7 16,8 "></polygon></g>
    </symbol>
    <symbol id="ic-plus" viewBox="0 0 16 16">
      <g fill="currentColor"><path d="M15,7H9V1c0-0.6-0.4-1-1-1S7,0.4,7,1v6H1C0.4,7,0,7.4,0,8s0.4,1,1,1h6v6c0,0.6,0.4,1,1,1s1-0.4,1-1V9h6 c0.6,0,1-0.4,1-1S15.6,7,15,7z"></path></g>
    </symbol>
    <symbol id="ic-quotes" viewBox="0 0 32 32">
      <path d="M9.563 8.469l-0.813-1.25c-5.625 3.781-8.75 8.375-8.75 12.156 0 3.656 2.688 5.375 4.969 5.375 2.875 0 4.906-2.438 4.906-5 0-2.156-1.375-4-3.219-4.688-0.531-0.188-1.031-0.344-1.031-1.25 0-1.156 0.844-2.875 3.938-5.344zM21.969 8.469l-0.813-1.25c-5.563 3.781-8.75 8.375-8.75 12.156 0 3.656 2.75 5.375 5.031 5.375 2.906 0 4.969-2.438 4.969-5 0-2.156-1.406-4-3.313-4.688-0.531-0.188-1-0.344-1-1.25 0-1.156 0.875-2.875 3.875-5.344z"/>
    </symbol>
    <symbol id="ic-down" viewBox="0 0 16 16">
      <g fill="currentColor"><polygon points="8,11.4 2.6,6 4,4.6 8,8.6 12,4.6 13.4,6 "></polygon></g>
    </symbol>
    <symbol id="ic-mtfuji" viewBox="0 0 340 340">
      <circle cx="215.331" cy="97.719" r="68.193" style="fill:#f74f73"/><path d="M88.025,154.094l17.207-5.417,109.937,7.01,12.746,9.241s34.415,29,59.27,40.47v30.743H25.568l-3.061-22.266S66.811,175.731,88.025,154.094Z" style="fill:#4673aa"/><path d="M287.185,222.82V205.4c-24.855-11.472-59.27-40.47-59.27-40.47l-12.746-9.241-9.732-.62C226.517,177.428,255.091,203.81,287.185,222.82Z" style="fill:#aeb7d8"/><rect height="74.332" style="fill:#b5d4f4" width="320" x="10" y="236.141"/><path d="M55.3,221.07c16.385-10.179,27.576-.936,31.2,2.666a38.622,38.622,0,0,0,5.476,4.034c4.909,3.326,15.927,5.9,15.927,5.9a76.12,76.12,0,0,0,10.449,2.473H10s4.057-15.965,15.57-24.987q.552-.432,1.123-.826s13.386-4.1,19.886.08A25.268,25.268,0,0,1,55.3,221.07Z" style="fill:#698779"/><path d="M330,236.141a33.185,33.185,0,0,0-5.035-13.083s-9.126-11-22.413-11.692c0,0-4.823-13.368-18.01-13.385a17.529,17.529,0,0,0-6.594,1.378,17.992,17.992,0,0,0-10.136,9.35s-16.99-8.572-26.868,8.857c0,0-8.656-5.632-17.42,2.362a34.043,34.043,0,0,0-2.755,2.892,55.05,55.05,0,0,1-8.326,7.14c-4.4,3.248-10.173,6.181-16.712,6.181Z" style="fill:#698779"/><path d="M138.569,104.7h28.394A10.675,10.675,0,0,1,175,108.35c8.281,9.476,31.42,35.6,52.914,56.578a32.873,32.873,0,0,0-27.3,2.746,19.143,19.143,0,0,1-13.075,2.153,24.013,24.013,0,0,1-7.091-2.509,17.65,17.65,0,0,0-14.55-1.006,26.207,26.207,0,0,0-6.314,3.334,25.225,25.225,0,0,1-16.6,4.864,24.747,24.747,0,0,1-12.705-4.731,18.983,18.983,0,0,0-7.912-3.233,35.374,35.374,0,0,0-20.964,2.843s.638-15.3-13.383-15.3c0,0,25.809-24.407,42.156-45.318A10.636,10.636,0,0,1,138.569,104.7Z" style="fill:#c4dfe8"/><path d="M227.915,164.928c-21.494-20.982-44.633-47.1-52.914-56.578a10.675,10.675,0,0,0-8.038-3.648H138.569a10.834,10.834,0,0,0-1.34.09l26.852,5.433a11.416,11.416,0,0,1,6.843,4.3,516.849,516.849,0,0,0,42.542,48.87A31.358,31.358,0,0,1,227.915,164.928Z" style="fill:#fffaff"/><path d="M59.575,72.365c1.588,2.52,2.49,6.686,3.059,10.511,0,0,9.921-1.094,19.935,9.319,3.737,3.885,9.818,6.159,14.974,7.73q.563.171,1.151.33a.462.462,0,0,1-.112.911H12.411a2.28,2.28,0,0,1-2.272-2.515c.6-5.777,3.751-19.674,20.168-21.9,0,0,.05-.253.169-.7a16.419,16.419,0,0,1,9.431-11S52.93,61.817,59.575,72.365Z" style="fill:#71aacc"/><path d="M239.565,119.952h87.692a1.075,1.075,0,0,0,.493-2.032,75.838,75.838,0,0,1-14.109-9.045s-7.185-13.82-19.46-10.652a22.815,22.815,0,0,0-1.508-5.524,16.66,16.66,0,0,0-3.507-5.428S276.239,78.7,263,94.844c-.076.093-10.093,1.2-11.917,10.676-.7,3.627-3.559,6.7-6.29,9.182a20.872,20.872,0,0,1-5.581,3.628A.85.85,0,0,0,239.565,119.952Z" style="fill:#71aacc"/><path d="M245.292,263.691H131.35a4,4,0,0,1,0-8H245.292a4,4,0,1,1,0,8Z" style="fill:#6c9bd3"/><path d="M106.062,263.691h-2.084a4,4,0,0,1,0-8h2.084a4,4,0,1,1,0,8Z" style="fill:#6c9bd3"/><path d="M76.607,255.691H10v8H76.607a4,4,0,1,0,0-8Z" style="fill:#6c9bd3"/><path d="M101.408,169.389l16.722-20.222a1.754,1.754,0,0,1,3.008,1.694l-8.26,23.718Z" style="fill:#4673aa"/><path d="M199.218,168.4l-12.661-23.548a1.266,1.266,0,0,1,2.042-1.462l25.781,27.709Z" style="fill:#4673aa"/><path d="M159.586,169.646l-2.952,22.711a1.633,1.633,0,0,1-3.225.086l-4.21-22.8Z" style="fill:#c4dfe8"/><path d="M269.286,263.325,252.8,276.6a34.522,34.522,0,0,1-21.654,7.635H10v26.24H330V255.691H290.94A34.531,34.531,0,0,0,269.286,263.325Z" style="fill:#6c9bd3"/><path d="M278.269,284.233H182.123a4,4,0,0,1,0-8h96.146a4,4,0,0,1,0,8Z" style="fill:#b5d4f4"/><path d="M301.84,284.233h-2.778a4,4,0,0,1,0-8h2.778a4,4,0,0,1,0,8Z" style="fill:#b5d4f4"/><path d="M98.694,100.254q-.588-.158-1.151-.329a31.661,31.661,0,0,1-13.5-8.454c-10.015-10.413-19.549-9.583-19.549-9.583a29.255,29.255,0,0,0-3.087-9.62c-4.486-8.351-14.057-10.44-21.5-7.208.115-.013,17.382-1.906,19.241,22.892,0,0,10.8-2.091,18.033,5.546A29.35,29.35,0,0,0,84.3,99.153c1.228.675,2.621,1.373,4.122,2.013H98.582A.463.463,0,0,0,98.694,100.254Z" style="fill:#dfe4f9"/><path d="M256.038,111.649c1.467-14.247,13.619-15.5,13.619-15.5,5.573-14.242,19.1-9.025,19.5-8.868-8.144-8.351-23.749-5.916-27.8,6.581-.038.115-.074.23-.11.347,0,0-9.56,1.509-11.384,10.985a17.061,17.061,0,0,1-5.078,9.512,20.849,20.849,0,0,1-5.58,3.628.85.85,0,0,0,.359,1.622h11.119A11.292,11.292,0,0,0,256.038,111.649Z" style="fill:#dfe4f9"/><path d="M303.437,210.815s-5.457-13.643-18.644-13.66a18.393,18.393,0,0,0-6.772,1.335c-3.323,1.316-8.2,4.08-10.593,9.457,0,0-17.207-8.728-27.085,8.7,0,0-8.817-4.786-17.584,3.219a23.087,23.087,0,0,0-2.22,2.406,47.035,47.035,0,0,1-8.1,7.685c4.064-1.341,8.678-3.484,12.049-6.855a10.921,10.921,0,0,1,5.9-3.017,18.146,18.146,0,0,1,13.19,2.734s10.074-17.639,31.419-6.172c0,0,.231-9.366,9.081-11.244s15.509,12.124,15.509,12.124,14.486-3.188,25.373,5.53C321.181,217.336,314.644,211.711,303.437,210.815Z" style="fill:#b0d1ba"/><path d="M92.432,226.591a34.051,34.051,0,0,1-4.858-4.121c-3.619-3.6-15.621-13.285-32.006-3.106a21.732,21.732,0,0,0-8.065-9.883c-6.5-4.18-14.457-3.523-20.807.851,6.828-1.221,20.206-1.02,26.2,17.035,0,0,13.72-11.681,27.516-1.495a40.379,40.379,0,0,0,12.359,6.433,35.5,35.5,0,0,0,15.124,1.361A59.131,59.131,0,0,1,92.432,226.591Z" style="fill:#b0d1ba"/>
    </symbol>
    <symbol id="ic-sakura" viewBox="0 0 340 340">
      <path d="M138.058,249.571s19.225-4.621,31.154,11.145c0,0-.666-21.869,22.1-28.214,0,0,8.434,18.617-2.292,32.373,0,0,17.422-4.548,27.673,8.8,0,0-6.578,15.843-28.414,11.767,0,0,10.275,19.479,1.177,34.393,0,0-14.667-5.4-21.271-23.415,0,0-8.454,14.114-25.015,12.08,0,0-5.694-22.3,15.618-31.068C158.788,277.436,135.445,274.057,138.058,249.571Z" style="fill:#ffdef0"/><path d="M10.322,103.3V60.075s41.228-2.58,71,31.08c6.347,7.175,15.44,21.743,19.325,30.5,10.453,23.561,60.056,120.838,169.1,114.215,0,0,32.4-3.334,49.978-19.853a5.909,5.909,0,0,1,9.546,2.174h0a5.9,5.9,0,0,1-.567,5.4c-7.208,10.9-40.162,49.787-130.985,24.359,0,0-27.183-6.189-57.991-31.464l-22.717-14.318c-5.923-10.881-14.483-24.955-22.978-39.039-8.864-14.7-19.694-30.739-33.283-41.221C47.69,111.83,30.222,105.465,10.322,103.3Z" style="fill:#473b37"/><path d="M52.422,36.161c-.3,9.549,1.4,24.953,13.7,34.374,0,0-14.454-.912-26.444,16.8a7.8,7.8,0,0,0,2.916,11.24c8.78,4.6,24.936,10,42.7.8a42.983,42.983,0,0,0,18.63,37.152,7.793,7.793,0,0,0,10.8-1.892c5.283-7.517,11.708-22.185.267-40.448,0,0,18.885,7.416,35.425-2.767a7.773,7.773,0,0,0,1.506-11.972c-6.011-6.24-17.73-14.473-37.331-13.719a44.1,44.1,0,0,0,12.076-39.065,7.823,7.823,0,0,0-10.037-6.133c-8.855,2.829-22.389,10.382-26.072,30.378,0,0-9.947-17.181-28.271-22A7.824,7.824,0,0,0,52.422,36.161Z" style="fill:#ffdef0"/><path d="M71.382,159.772s24.156,2.761,29.333,28.3c0,0-3.106-25.183,35.89-29.846,0,0,6.557,26.74-19.671,42.27,0,0,23.21-5.522,37.142,17.6,0,0-10.569,14.494-36.8,7.247,0,0,4.487,20.361-10.007,33.474,0,0-22.087-4.486-16.565-36.925,0,0-23.122,13.114-42.447-5.867,0,0,7.247-19.67,36.235-16.91C84.5,199.113,60.684,191.176,71.382,159.772Z" style="fill:#ffabd1"/><path d="M226.64,249.585s18.608-9.522,34.781,3.717c0,0-6.114-22.306,15.7-34.48,0,0,13.289,17.037,5.683,33.835,0,0,16.773-9,30.622,2.176,0,0-2.825,17.913-26.276,19.147,0,0,15.395,17.464,9.749,35.049,0,0-16.413-1.907-27.671-18.78,0,0-5.758,17.944-24.792,18.78,0,0-10.3-20.992,9.426-35.3C253.866,273.734,230.035,275.4,226.64,249.585Z" style="fill:#ffdef0"/><path d="M171.464,170.806s23.611-4.667,37.337,15.1c0,0,.275-26.631,28.278-33.219,0,0,9.334,23.061-4.393,39.258,0,0,21.414-4.667,33.219,12.08,0,0-8.785,18.943-35.141,12.9,0,0,11.531,24.2-.274,41.887,0,0-17.571-7.295-24.709-29.532,0,0-10.981,16.746-31.022,13.452,0,0-6.414-26.739,19.942-36.348C194.7,206.387,167.072,200.456,171.464,170.806Z" style="fill:#ffabd1"/><path d="M55.088,268.676S50.24,302.613,81.06,305.037C81.06,305.037,87.639,278.719,55.088,268.676Z" style="fill:#ffabd1"/><path d="M198.8,95.88s12.813,34.974,55.752,9C254.549,104.883,240.351,73.371,198.8,95.88Z" style="fill:#ffabd1"/><path d="M305.107,162.279S291.948,173.1,293.679,187.3c0,0,1.732,12.813,13.852,16.622C307.531,203.921,326.23,182.623,305.107,162.279Z" style="fill:#ffd2e9"/><path d="M25.281,192a3.983,3.983,0,0,1-2.82-1.17,3.3,3.3,0,0,1-.5-.61,3.6,3.6,0,0,1-.37-.69,3.88,3.88,0,0,1-.229-.74,4.236,4.236,0,0,1-.081-.79,4,4,0,0,1,4.781-3.92,3.768,3.768,0,0,1,.75.231,3.483,3.483,0,0,1,.689.369,3.289,3.289,0,0,1,.611.5A4,4,0,0,1,25.281,192Z" style="fill:#ffabd1"/><path d="M156.041,42.31a4,4,0,0,1-4-4,4.215,4.215,0,0,1,.08-.781,4,4,0,0,1,.231-.75,4.565,4.565,0,0,1,.359-.69,4.925,4.925,0,0,1,.5-.609,4.008,4.008,0,0,1,5.66,0,4.1,4.1,0,0,1,.491.609,3.994,3.994,0,0,1,.37.69,4.045,4.045,0,0,1,.309,1.531,4.045,4.045,0,0,1-.08.779,3.9,3.9,0,0,1-.229.75,3.628,3.628,0,0,1-.37.69,3.7,3.7,0,0,1-.491.61A4.066,4.066,0,0,1,156.041,42.31Z" style="fill:#ffdef0"/><path d="M278.221,95.9a3.43,3.43,0,0,1-.779-.08,3.885,3.885,0,0,1-.75-.23A4.572,4.572,0,0,1,276,95.23a5.106,5.106,0,0,1-.61-.5,3.631,3.631,0,0,1-.489-.611,3.771,3.771,0,0,1-.371-.69,3.859,3.859,0,0,1-.23-.75,4.129,4.129,0,0,1-.08-.78,4.069,4.069,0,0,1,1.17-2.83,4.919,4.919,0,0,1,.61-.5,4.577,4.577,0,0,1,.691-.36,3.952,3.952,0,0,1,.75-.229,4.033,4.033,0,0,1,3.609,1.089,4.746,4.746,0,0,1,.5.61,4.406,4.406,0,0,1,.37.69,3.742,3.742,0,0,1,.22.75,3.843,3.843,0,0,1,0,1.56,3.7,3.7,0,0,1-.22.75,4.406,4.406,0,0,1-.37.69,4.209,4.209,0,0,1-.5.611A4.066,4.066,0,0,1,278.221,95.9Z" style="fill:#ffdef0"/><path d="M222.131,313.029a4.119,4.119,0,0,1-.779-.08,3.791,3.791,0,0,1-.75-.23,3.836,3.836,0,0,1-.691-.37,4.145,4.145,0,0,1-.61-.49,4.024,4.024,0,0,1-.489-.61,3.707,3.707,0,0,1-.37-.69,3.768,3.768,0,0,1-.231-.75,3.843,3.843,0,0,1,0-1.56,3.768,3.768,0,0,1,.231-.75,3.707,3.707,0,0,1,.37-.69,4.024,4.024,0,0,1,.489-.61,5.089,5.089,0,0,1,.61-.5,4.625,4.625,0,0,1,.691-.36,3.791,3.791,0,0,1,.75-.23,4.011,4.011,0,0,1,3.609,1.09,4.831,4.831,0,0,1,.5.61,4.406,4.406,0,0,1,.37.69,3.809,3.809,0,0,1,.22.75,3.394,3.394,0,0,1,.08.78,3.995,3.995,0,0,1-4,4Z" style="fill:#ffabd1"/><path d="M107.535,73.571c-3.721-.938-6.728-1.527-9.116-1.9a48.35,48.35,0,0,1,4-4.471,4,4,0,1,0-5.631-5.683,54.6,54.6,0,0,0-6.09,7.124L84.952,62.9A4,4,0,1,0,79.3,68.555L84.94,74.2l-7.6,4.42a4,4,0,1,0,4.022,6.916l7.529-4.378c.652,2.464,1.561,5.834,2.779,10.208a4,4,0,1,0,7.707-2.144c-1.138-4.09-2.009-7.312-2.647-9.717,2.187.328,5.108.882,8.851,1.826a4.056,4.056,0,0,0,.982.122,4,4,0,0,0,.975-7.88Z" style="fill:#f982aa"/><path d="M112.745,204.063a49.28,49.28,0,0,1-6.155-.84,16.523,16.523,0,0,1,2.582-3.378,4,4,0,1,0-5.658-5.656,24.445,24.445,0,0,0-2.955,3.582,32.842,32.842,0,0,0-2.338-2.422,4,4,0,1,0-5.4,5.9c.015.014.78.726,1.723,1.8a33.536,33.536,0,0,0-4.836,1.866,4,4,0,1,0,3.469,7.209,25.744,25.744,0,0,1,4.272-1.587,43.437,43.437,0,0,1-.254,5.487,4,4,0,0,0,7.947.917,50.466,50.466,0,0,0,.311-5.78,59.128,59.128,0,0,0,6.663.876c.107.009.213.013.319.013a4,4,0,0,0,.31-7.987Z" style="fill:#f45885"/><path d="M183.068,271.432l-3.433-.31.652-2.21a4,4,0,1,0-7.672-2.265l-.582,1.971-2.659-1.568a4,4,0,0,0-4.064,6.891l2.683,1.582-2.286,2.341a4,4,0,1,0,5.725,5.588l.7-.715.508,2.258a4,4,0,1,0,7.805-1.754l-.921-4.1,2.827.255c.122.011.244.016.364.016a4,4,0,0,0,.355-7.983Z" style="fill:#f982aa"/><path d="M225.318,200.838l-5.619-.46,2.478-6.182a4,4,0,0,0-7.426-2.976l-2.626,6.551a42.673,42.673,0,0,0-6.159-3.193,4,4,0,0,0-2.93,7.444,35.943,35.943,0,0,1,4.767,2.486l-6.162,6.3a4,4,0,1,0,5.721,5.591l4.455-4.558a36.728,36.728,0,0,1,.876,6.945,4,4,0,0,0,3.968,4.031h.033a4,4,0,0,0,4-3.968,50.156,50.156,0,0,0-1.444-10.487l5.414.444c.112.009.222.013.332.013a4,4,0,0,0,.323-7.986Z" style="fill:#f45885"/><path d="M284.548,262.879a4,4,0,0,0-4.907-2.813l-5.606,1.52v-3.875a4,4,0,0,0-8,0v3.843l-5.339-1.483a4,4,0,0,0-2.139,7.709l5.363,1.489-2.89,4.855a4,4,0,1,0,6.875,4.092l2.053-3.451,1.927,3.384a4,4,0,1,0,6.953-3.958l-2.771-4.868,5.668-1.537A4,4,0,0,0,284.548,262.879Z" style="fill:#f982aa"/>
    </symbol>
    <symbol id="ic-temple" viewBox="0 0 340 340">
      <rect height="247.443" style="fill:#f74f73" width="32.578" x="64.786" y="65.348"/><path d="M99.926,312.791h-37.7a9.151,9.151,0,0,0-9.151,9.151V330h56v-8.058A9.151,9.151,0,0,0,99.926,312.791Z" style="fill:#373d4c"/><rect height="247.443" style="fill:#f74f73" transform="translate(517.851 378.139) rotate(180)" width="32.578" x="242.637" y="65.348"/><path d="M240.074,312.791h37.7a9.151,9.151,0,0,1,9.151,9.151V330h-56v-8.058A9.151,9.151,0,0,1,240.074,312.791Z" style="fill:#373d4c"/><rect height="64.48" style="fill:#c12140" width="32.578" x="64.786" y="123.242"/><rect height="64.48" style="fill:#c12140" width="32.578" x="242.637" y="123.242"/><path d="M171.582,201.317a4,4,0,0,1-4-4v-34.6a4,4,0,1,1,8,0v34.6A4,4,0,0,1,171.582,201.317Z" style="fill:#e2b088"/><path d="M216.759,201.611a4,4,0,0,1-4-4v-34.6a4,4,0,0,1,8,0v34.6A4,4,0,0,1,216.759,201.611Z" style="fill:#e2b088"/><path d="M123.911,201.611a4,4,0,0,1-4-4v-34.6a4,4,0,0,1,8,0v34.6A4,4,0,0,1,123.911,201.611Z" style="fill:#e2b088"/><path d="M172.869,190.872l6.55,6.006a1.811,1.811,0,0,1,.025,2.646l-3.177,3.025a1.81,1.81,0,0,0,0,2.621l6.069,5.8a1.81,1.81,0,0,1,.146,2.461l-4.779,5.8a1.811,1.811,0,0,0,.211,2.519l5.468,4.747a1.811,1.811,0,0,1,.138,2.6l-12.086,12.992a1.811,1.811,0,0,1-2.595.057l-5.264-5.178a1.811,1.811,0,0,1-.094-2.481l4.648-5.33a1.811,1.811,0,0,0-.048-2.433l-5.317-5.632a1.811,1.811,0,0,1-.01-2.475l4.36-4.7a1.81,1.81,0,0,0-.076-2.54l-7.336-7.014a1.81,1.81,0,0,1-.038-2.58l10.694-10.848A1.81,1.81,0,0,1,172.869,190.872Z" style="fill:#e4e6f4"/><path d="M218.046,191.166l6.55,6.007a1.811,1.811,0,0,1,.025,2.646l-3.177,3.024a1.81,1.81,0,0,0,0,2.621l6.069,5.8a1.81,1.81,0,0,1,.146,2.461l-4.779,5.8a1.811,1.811,0,0,0,.211,2.519l5.468,4.747a1.811,1.811,0,0,1,.138,2.6l-12.086,12.992a1.809,1.809,0,0,1-2.595.057l-5.264-5.178a1.811,1.811,0,0,1-.094-2.481l4.648-5.33a1.811,1.811,0,0,0-.048-2.433l-5.317-5.632a1.811,1.811,0,0,1-.01-2.475l4.36-4.7a1.81,1.81,0,0,0-.076-2.54l-7.336-7.014a1.81,1.81,0,0,1-.038-2.58l10.694-10.847A1.811,1.811,0,0,1,218.046,191.166Z" style="fill:#e4e6f4"/><path d="M125.2,191.166l6.55,6.007a1.811,1.811,0,0,1,.025,2.646l-3.178,3.024a1.812,1.812,0,0,0,0,2.621l6.07,5.8a1.812,1.812,0,0,1,.146,2.461l-4.779,5.8a1.811,1.811,0,0,0,.21,2.519l5.468,4.747a1.811,1.811,0,0,1,.139,2.6l-12.086,12.992a1.81,1.81,0,0,1-2.6.057L115.9,237.26a1.811,1.811,0,0,1-.095-2.481l4.648-5.33a1.81,1.81,0,0,0-.048-2.433l-5.316-5.632a1.811,1.811,0,0,1-.01-2.475l4.359-4.7a1.81,1.81,0,0,0-.076-2.54l-7.336-7.014a1.812,1.812,0,0,1-.038-2.58l10.694-10.847A1.812,1.812,0,0,1,125.2,191.166Z" style="fill:#e4e6f4"/><path d="M10,10s5,8.861,6.1,16.182c.011.073.023.146.034.218A16.824,16.824,0,0,0,32.815,40.457h274.37A16.824,16.824,0,0,0,323.864,26.4c.011-.072.023-.145.034-.218C325,18.861,330,10,330,10Z" style="fill:#373d4c"/><path d="M39.242,40.457s4.09,7.242,4.987,13.224c.009.06.019.12.028.179A13.749,13.749,0,0,0,57.888,65.348H282.112A13.749,13.749,0,0,0,295.743,53.86c.009-.059.019-.119.028-.179.9-5.982,4.987-13.224,4.987-13.224Z" style="fill:#f74f73"/><rect height="43.697" style="fill:#373d4c" width="36.565" x="151.718" y="65.348"/><path d="M277.742,153.6H62.258a9.408,9.408,0,0,0,0,18.816H277.742a9.408,9.408,0,0,0,0-18.816Z" style="fill:#f4dcc6"/><path d="M73.677,172.415h9.477c-4.411-5.278-5.927-13.9-6.442-18.816H68.668C69.08,158.041,70.269,165.776,73.677,172.415Z" style="fill:#e2b088"/><path d="M101.679,172.415h9.477c-4.411-5.278-5.926-13.906-6.442-18.816H96.67C97.083,158.041,98.272,165.776,101.679,172.415Z" style="fill:#e2b088"/><path d="M130.141,172.415h9.477c-4.411-5.278-5.927-13.906-6.442-18.816h-8.044C125.544,158.041,126.733,165.776,130.141,172.415Z" style="fill:#e2b088"/><path d="M158.143,172.415h9.477c-4.412-5.278-5.927-13.906-6.443-18.816h-8.043C153.546,158.041,154.735,165.776,158.143,172.415Z" style="fill:#e2b088"/><path d="M188.164,172.415h9.478c-4.412-5.278-5.927-13.906-6.443-18.816h-8.044C183.568,158.041,184.757,165.776,188.164,172.415Z" style="fill:#e2b088"/><path d="M216.167,172.415h9.477c-4.412-5.278-5.927-13.9-6.443-18.816h-8.044C211.569,158.041,212.759,165.776,216.167,172.415Z" style="fill:#e2b088"/><path d="M241.84,172.415h9.477c-4.411-5.278-5.927-13.906-6.442-18.816h-8.044C237.243,158.041,238.432,165.776,241.84,172.415Z" style="fill:#e2b088"/><path d="M269.842,172.415h7.9a9.438,9.438,0,0,0,1.475-.127c-4.332-5.288-5.829-13.817-6.34-18.689h-8.044C265.245,158.041,266.435,165.776,269.842,172.415Z" style="fill:#e2b088"/><rect height="14.721" style="fill:#c12140" width="32.578" x="242.637" y="65.348"/><rect height="14.721" style="fill:#c12140" width="32.578" x="64.786" y="65.348"/><path d="M170,109.045H33.344l5.425,18.082A12.175,12.175,0,0,0,50.431,135.8H289.569a12.175,12.175,0,0,0,11.662-8.677l5.425-18.082Z" style="fill:#f74f73"/>
    </symbol>
    <symbol id="ic-koi" viewBox="0 0 340 340">
      <g stroke-linecap="round" stroke-linejoin="round"><path d="M65.5,149.512c.111.727-2.313-6.785,4.473-25.687C78.638,99.682,65.5,94.5,65.5,94.5a18.689,18.689,0,0,0-15.156,0l9.693,55.111Z" style="fill:#bdd1d6"></path><path d="M23.826,154.058s-2-9.173-10.316-27.452c-3.718-8.172-4.583-14.248-4.137-18.695A14.132,14.132,0,0,1,21.191,95.587a31.7,31.7,0,0,1,11.528.01v55.821Z" style="fill:#bdd1d6"></path><path d="M103.857,301.753s-8.081-8.081-30.795-2.184-39.095-2.154-39.095-2.154-7.644-3.306-10.7-9.421c0,0-.282-5.9,6.084-9.61,0,0-3.682-24.025,23.182-32.106Z" style="fill:#bdd1d6"></path><path d="M150.019,241.461s-8.409-5.88-6.75-26.885-8.024-34.227-8.024-34.227-4.119-6.241-10-7.987c0,0-5.258.675-7.544,6.883,0,0-21.817.5-24.757,25.521Z" style="fill:#bdd1d6"></path><path d="M39.147,90.469l14.678-8.847S79.2,39.264,48.019,8.845c0,0-20.533,9.379-11.154,37.009a13.691,13.691,0,0,0-8.858,1.739A11.643,11.643,0,0,0,23.439,62.9a53.268,53.268,0,0,1,4.522,33.862Z" style="fill:#bdd1d6"></path><path d="M143.785,231.036l-35.922,78.375S22.372,274.025,22.734,162.5c0,0,2.719-23.7,3.884-33.391l.252-23.241c.331-3.089.7-6.171,1.091-9.1a15.727,15.727,0,0,1,6.571-10.792,26.3,26.3,0,0,1,19.293-4.349S43.775,177.474,143.785,231.036Z" style="fill:#e7eef2"></path><path d="M143.785,231.036c-2.221-1.189-4.369-2.406-6.482-3.636a71.686,71.686,0,0,0-6.96,4.036l-1.119.735-.018.03c-10.1,6.915-26.064,21.638-29.34,47.036l-.017.028-.158,1.373a85.131,85.131,0,0,0,1.3,25.336,76.783,76.783,0,0,0,6.875,3.437Z" style="fill:#bdd1d6"></path><path d="M59.093,246.53a26,26,0,0,1,6.32,9.7,49.292,49.292,0,0,0,9.157,15.335c13.373,15.24,36.7,8.534,36.7,8.534l16-13.025,16.516-36.035a192.941,192.941,0,0,1-32.644-21.853l-13.867,10.75c-13.98-4.573-24.276-4.371-31.515-2.6a16.618,16.618,0,0,0-8.644,27.14C57.782,245.232,58.451,245.918,59.093,246.53Z" style="fill:#ff6d55"></path><path d="M137.3,227.4a71.686,71.686,0,0,0-6.96,4.036l-1.119.735-.018.03c-10.1,6.915-26.064,21.638-29.34,47.036l-.017.028-.158,1.373c-.033.3-.048.617-.078.923A47.692,47.692,0,0,0,111.27,280.1l16-13.025,16.516-36.035C141.564,229.847,139.416,228.63,137.3,227.4Z" style="fill:#d34a37"></path><path d="M92.221,190.708c-26.578,6.058-10.845,40.328-10.845,40.328s13.077,8.7,23.878,8.436,9.6-11.769,9.6-11.769c-.547-4.238-.022-10.259.6-15.044A168.525,168.525,0,0,1,92.221,190.708Z" style="fill:#454f60"></path><path d="M193.488,313.61h0a11.209,11.209,0,0,0,9.04-4.567,35.44,35.44,0,0,0,6.569-24.265,11.243,11.243,0,0,0-5.588-8.84l-.575-.332a8.487,8.487,0,0,1-3.65-4.006c-1.3-3.115-5.607-7.651-13.551-12.417l.971-6.2a13.836,13.836,0,0,0-7.6-12.5c-.434-.211-1.061-.5-1.767-.816a7.277,7.277,0,0,0-7.387.936l-2.822,2.195s-6.552-7.094-23.346-11.759a56.164,56.164,0,0,0-10.148,5.416l-27.981,44.834a81.6,81.6,0,0,0,2.207,28.125,269.189,269.189,0,0,0,27.157,7.571l-.1,3.726a5.9,5.9,0,0,0,.347,2.294,8.047,8.047,0,0,0,5.636,4.95,47.89,47.89,0,0,0,13.936,1.1,8.172,8.172,0,0,0,6.8-4.442l2.174-4.088s14.135,1.391,25.151-5.566A8.5,8.5,0,0,1,193.488,313.61Z" style="fill:#e7eef2"></path><path d="M84.371,244.816a1.163,1.163,0,0,0,1.777-1.2,84.43,84.43,0,0,1-.92-22.675,22.863,22.863,0,0,0-10.7-19S61.822,192.931,55,181.226a1.111,1.111,0,0,0-2.055.758C55.884,197.9,64.272,231.421,84.371,244.816Z" style="fill:#bdd1d6"></path><path d="M80.566,292.112a20.34,20.34,0,0,0,4.237-2.735c9.41-7.958,4.842-23.242-7.3-25.342a35.369,35.369,0,0,0-11.575.085,34.948,34.948,0,0,1-12.385-.358A152.775,152.775,0,0,0,80.566,292.112Z" style="fill:#454f60"></path><path d="M42.883,156.627c10.8-8.9,16.023-15.526,18.524-20.069-1.476-4.5-2.679-8.854-3.664-13.015a52.425,52.425,0,0,0-12.337-7.021,31.479,31.479,0,0,1-9-5.59,24.367,24.367,0,0,0-9.538-5.066c-1.549,14.432-2.387,29-2.387,29-2.737,22.777-2.105,42.861.819,60.514C26.017,183.545,29.689,167.5,42.883,156.627Z" style="fill:#ff6d55"></path><path d="M28.913,212.041c6.184-2.008,13.766-6.533,13.97-16.681,0,0,2.248-26.523-20.132-32.862A187.735,187.735,0,0,0,28.913,212.041Z" style="fill:#454f60"></path><path d="M45.511,129.227a13.852,13.852,0,0,0,13.4-1.049,159.234,159.234,0,0,1-4.432-23.3,14.521,14.521,0,0,0-14.072,14.513C40.4,123.291,41.488,127.356,45.511,129.227Z" style="fill:#454f60"></path><path d="M105.664,281.287l11.438,2.205a11.04,11.04,0,0,0,8.114-1.587l.232-.151a8.135,8.135,0,0,1,10.123,1.07c4.079,3.967,10.9,8.33,19.16,4.84,13.613-5.748,0-28.436,0-28.436s-7.685-18.059-21.094-22.775C123.257,243.268,108.294,257.119,105.664,281.287Z" style="fill:#ff6d55"></path><ellipse cx="148.702" cy="321.886" rx="3.629" ry="7.343" style="fill:#373d4c" transform="translate(-182.823 447.64) rotate(-85.977)"></ellipse><path d="M274.5,190.488c-.111-.727,2.313,6.785-4.473,25.687C261.362,240.318,274.5,245.5,274.5,245.5a18.689,18.689,0,0,0,15.156,0l-9.693-55.111Z" style="fill:#d34a37"></path><path d="M316.174,185.942s2,9.173,10.316,27.452c3.718,8.172,4.583,14.248,4.137,18.695a14.132,14.132,0,0,1-11.818,12.324,31.7,31.7,0,0,1-11.528-.01V188.582Z" style="fill:#d34a37"></path><path d="M236.143,38.247s8.081,8.081,30.795,2.184,39.1,2.154,39.1,2.154,7.644,3.306,10.7,9.421c0,0,.282,5.9-6.084,9.61,0,0,3.682,24.025-23.182,32.106Z" style="fill:#d34a37"></path><path d="M189.981,98.539s8.409,5.88,6.75,26.885,8.024,34.227,8.024,34.227,4.119,6.241,10,7.987c0,0,5.258-.675,7.544-6.883,0,0,21.817-.5,24.757-25.521Z" style="fill:#d34a37"></path><path d="M300.853,249.531l-14.678,8.847s-25.373,42.358,5.806,72.777c0,0,20.533-9.379,11.154-37.009a13.691,13.691,0,0,0,8.858-1.739,11.643,11.643,0,0,0,4.568-15.308,53.268,53.268,0,0,1-4.522-33.862Z" style="fill:#d34a37"></path><path d="M196.215,108.964l35.922-78.375s59.4,24.587,78.965,97.366l6.164,49.547s-2.719,23.7-3.884,33.391l-.252,23.241c-.331,3.089-.695,6.171-1.091,9.1a15.727,15.727,0,0,1-6.571,10.792,26.3,26.3,0,0,1-19.293,4.349S296.225,162.526,196.215,108.964Z" style="fill:#ff6d55"></path><path d="M240.143,34.658a81.432,81.432,0,0,0-8.006-4.069l-35.922,78.375c2.583,1.383,5.074,2.8,7.512,4.238a73.384,73.384,0,0,0,6.479-3.8l1.312-.862.024-.039c10.227-7.047,26.188-21.9,29.555-47.389l.023-.037.183-1.6A85.648,85.648,0,0,0,240.143,34.658Z" style="fill:#d34a37"></path><path d="M280.907,93.47a26,26,0,0,1-6.32-9.7,49.292,49.292,0,0,0-9.157-15.335c-13.373-15.24-36.7-8.534-36.7-8.534l-16,13.025-16.516,36.035a192.941,192.941,0,0,1,32.644,21.853l13.867-10.75c13.98,4.573,24.276,4.371,31.515,2.6a16.618,16.618,0,0,0,8.644-27.14C282.218,94.768,281.549,94.082,280.907,93.47Z" style="fill:#454f60"></path><path d="M228.73,59.9l-16,13.025-16.516,36.035c2.583,1.383,5.074,2.8,7.512,4.238a73.529,73.529,0,0,0,6.479-3.8l1.312-.862.024-.039c10.227-7.047,26.188-21.9,29.555-47.389l.023-.037.183-1.6c.037-.338.054-.684.086-1.024A48.153,48.153,0,0,0,228.73,59.9Z" style="fill:#373d4c"></path><path d="M247.779,149.292c26.578-6.058,10.845-40.328,10.845-40.328s-13.077-8.7-23.878-8.436-9.6,11.769-9.6,11.769c.547,4.238.022,10.259-.6,15.044A168.525,168.525,0,0,1,247.779,149.292Z" style="fill:#e7eef2"></path><path d="M146.512,26.39h0a11.209,11.209,0,0,0-9.04,4.567A35.44,35.44,0,0,0,130.9,55.222a11.243,11.243,0,0,0,5.588,8.84l.575.332a8.487,8.487,0,0,1,3.65,4.006c1.3,3.115,5.607,7.651,13.551,12.417l-.971,6.2a13.836,13.836,0,0,0,7.6,12.5c.434.211,1.061.505,1.767.816a7.277,7.277,0,0,0,7.387-.936l2.822-2.2s6.552,7.094,23.346,11.759a56.164,56.164,0,0,0,10.148-5.416l27.981-44.834a81.6,81.6,0,0,0-2.207-28.125,269.189,269.189,0,0,0-27.157-7.571l.1-3.726A5.9,5.9,0,0,0,204.737,17a8.047,8.047,0,0,0-5.636-4.95,47.89,47.89,0,0,0-13.936-1.1,8.172,8.172,0,0,0-6.8,4.442l-2.174,4.088s-14.135-1.391-25.151,5.566A8.5,8.5,0,0,1,146.512,26.39Z" style="fill:#ff6d55"></path><path d="M255.629,95.184a1.163,1.163,0,0,0-1.777,1.2,84.43,84.43,0,0,1,.92,22.675,22.863,22.863,0,0,0,10.7,19s12.7,9.011,19.526,20.716a1.111,1.111,0,0,0,2.055-.758C284.116,142.1,275.728,108.579,255.629,95.184Z" style="fill:#d34a37"></path><path d="M259.434,47.888a20.34,20.34,0,0,0-4.237,2.735c-9.41,7.958-4.842,23.242,7.3,25.342a35.369,35.369,0,0,0,11.575-.085,34.948,34.948,0,0,1,12.385.358A152.775,152.775,0,0,0,259.434,47.888Z" style="fill:#e7eef2"></path><path d="M297.117,183.373c-10.8,8.9-16.023,15.526-18.524,20.069,1.476,4.5,2.679,8.854,3.664,13.015a52.425,52.425,0,0,0,12.337,7.021,31.479,31.479,0,0,1,9,5.59,24.367,24.367,0,0,0,9.538,5.066c1.549-14.432,2.387-29,2.387-29a237.9,237.9,0,0,0,1.747-27.636c.037-11.8-2.407-22.721-4.086-32.862C312.463,156.472,310.311,172.5,297.117,183.373Z" style="fill:#454f60"></path><path d="M311.087,127.959c-6.184,2.008-13.766,6.533-13.97,16.681,0,0-2.248,26.523,20.132,32.862A187.735,187.735,0,0,0,311.087,127.959Z" style="fill:#e7eef2"></path><path d="M294.489,210.773a13.852,13.852,0,0,0-13.4,1.049,159.234,159.234,0,0,1,4.432,23.3,14.521,14.521,0,0,0,14.072-14.513C299.605,216.709,298.512,212.644,294.489,210.773Z" style="fill:#e7eef2"></path><path d="M234.336,58.713l-11.438-2.2a11.04,11.04,0,0,0-8.114,1.587l-.232.151a8.135,8.135,0,0,1-10.123-1.07c-4.079-3.967-10.9-8.33-19.16-4.84-13.613,5.748,0,28.436,0,28.436s7.685,18.059,21.094,22.775C216.743,96.732,231.706,82.881,234.336,58.713Z" style="fill:#454f60"></path><ellipse cx="191.298" cy="18.114" rx="3.629" ry="7.343" style="fill:#373d4c" transform="translate(159.809 207.67) rotate(-85.977)"></ellipse><path d="M185.733,259.183l.971-6.2a13.836,13.836,0,0,0-7.6-12.5c-.434-.211-1.061-.5-1.767-.816a7.277,7.277,0,0,0-7.387.936l-2.822,2.195C177.214,249.852,180.877,253.342,185.733,259.183Z" style="fill:#bdd1d6"></path><path d="M203.509,275.938l-.575-.332a8.531,8.531,0,0,1-3.574-3.846c.768,1.672,7.083,16.935-5.872,41.85a11.209,11.209,0,0,0,9.04-4.567,35.438,35.438,0,0,0,6.569-24.265A11.243,11.243,0,0,0,203.509,275.938Z" style="fill:#bdd1d6"></path><path d="M153.3,87.02a13.836,13.836,0,0,0,7.6,12.5c.434.211,1.061.505,1.767.816a7.277,7.277,0,0,0,7.387-.936l2.822-2.2-18.6-16.388Z" style="fill:#d34a37"></path><path d="M150.019,25.6l0,0a8.313,8.313,0,0,1-3.512.8,11.209,11.209,0,0,0-9.04,4.567A35.438,35.438,0,0,0,130.9,55.222a11.243,11.243,0,0,0,5.588,8.84l.575.332S134.233,41.061,150.019,25.6Z" style="fill:#d34a37"></path></g>
    </symbol>
    <symbol id="ic-ramen" viewBox="0 0 340 340">
      <path d="M88.353,50.356S84.068,82.9,56.3,107.974l9.717,10.892S88.81,101.135,92.863,79.1Z" style="fill:#f7954d"/><path d="M86.053,36.811v40.4s2.3,37.347-15.48,55.331l11.892,10.025s20.091-15.448,21.075-57.038V36.811Z" style="fill:#f7954d"/><polygon points="68.767 30.178 310.179 30.178 310.179 50.356 68.767 42.001 68.767 30.178" style="fill:#f2ab83"/><path d="M92.863,123.793s9.044,10.36,10.677,22.265,0,35.287,0,35.287l29.36,9.565L114.135,99.147,95.65,94.385Z" style="fill:#f7954d"/><path d="M99.732,30.178h53.352V70.026a126.841,126.841,0,0,0,4.351,33.065,275.152,275.152,0,0,0,12.615,36.4,94.522,94.522,0,0,1,6.925,25.86c.475,3.907.914,8.43,1.232,13.509L121.419,190.91s2.972-13.871.617-37.724a84.53,84.53,0,0,0-9.986-32.457c-5.474-9.947-12.318-24.891-12.318-44.908Z" style="fill:#fff099"/><path d="M144.568,186V173.032a162.781,162.781,0,0,0-1.9-25.144,108.186,108.186,0,0,0-12.692-35.936C118.341,91.1,118.07,73,118.068,72.844V30.178h-8V72.859c0,.816.224,20.235,12.924,42.992a100.235,100.235,0,0,1,11.774,33.277,154.744,154.744,0,0,1,1.8,23.9V187.7Z" style="fill:#f7954d"/><path d="M165.957,181.461v-8.429a162.781,162.781,0,0,0-1.9-25.144,108.205,108.205,0,0,0-12.691-35.936C139.73,91.1,139.459,73,139.457,72.844V30.178h-8V72.859c0,.816.224,20.235,12.924,42.992a100.235,100.235,0,0,1,11.774,33.277,154.744,154.744,0,0,1,1.8,23.9v10.126Z" style="fill:#f7954d"/><path d="M158.132,170a41.206,41.206,0,0,0-40.756,47.266h81.513A41.206,41.206,0,0,0,158.132,170Z" style="fill:#f7954d"/><path d="M185.888,217.266a29.644,29.644,0,1,0-57.627,0h7.265a22.644,22.644,0,1,1,43.1,0Z" style="fill:#d66b2f"/><path d="M159.24,217.266h10.3a14.277,14.277,0,1,0-24.922,0h10.3a7.277,7.277,0,1,1,4.33,0Z" style="fill:#d66b2f"/><path d="M202.841,175.091a36.773,36.773,0,0,0-36.367,42.175h72.733a36.773,36.773,0,0,0-36.366-42.175Z" style="fill:#fff099"/><path d="M202.158,182.816a29.628,29.628,0,0,0-29.249,34.45h7.123a22.645,22.645,0,1,1,44.251,0h7.123a29.623,29.623,0,0,0-29.248-34.45Z" style="fill:#f7954d"/><path d="M217.055,217.266a15.66,15.66,0,1,0-29.8,0h7.7a8.659,8.659,0,1,1,14.395,0Z" style="fill:#f7954d"/><path d="M97.725,173.032A41.428,41.428,0,0,0,56.3,214.46c0,.944.043,1.878.106,2.806h82.645c.062-.928.1-1.862.1-2.806A41.428,41.428,0,0,0,97.725,173.032Z" style="fill:#fff099"/><path d="M96.673,182.816A33.416,33.416,0,0,0,63.3,216.194c0,.359.016.715.027,1.072h7c-.014-.356-.027-.713-.027-1.072a26.378,26.378,0,0,1,52.756,0c0,.359-.013.716-.028,1.072h7c.012-.357.028-.713.028-1.072A33.416,33.416,0,0,0,96.673,182.816Z" style="fill:#f7954d"/><path d="M114.014,217.266c.022-.357.054-.71.054-1.072a17.4,17.4,0,1,0-34.79,0c0,.362.032.715.054,1.072h7a10.554,10.554,0,0,1-.055-1.072,10.4,10.4,0,1,1,20.79,0,10.554,10.554,0,0,1-.055,1.072Z" style="fill:#f7954d"/><path d="M32.494,164.423l23.831-6.737a12.5,12.5,0,0,1,14.439,6.169c5.788,10.885,14.791,30.765,17.589,53.411H53.67S45.5,186.808,32.494,164.423Z" style="fill:#728772"/><path d="M45.087,217.266s-3.771-17.79-15.266-32.31l21.069-3.485a9.38,9.38,0,0,1,9.678,4.606A93.739,93.739,0,0,1,71.6,217.266Z" style="fill:#3c4c3c"/><path d="M157.5,103.32a127.279,127.279,0,0,1-4.413-33.294v-7.6l-7.457,7.435a5.52,5.52,0,0,1-3.029,1.543L129.2,73.54a5.519,5.519,0,0,0-4.651,5.442l-.019,13.564a5.512,5.512,0,0,1-1.051,3.232l-7.964,10.98a5.517,5.517,0,0,0,.56,7.136l9.577,9.6a5.52,5.52,0,0,1,1.543,3.029l2.132,13.395a5.519,5.519,0,0,0,5.442,4.651l13.564.018a5.52,5.52,0,0,1,3.232,1.052l10.98,7.964a5.517,5.517,0,0,0,7.136-.56l3.889-3.877a92.72,92.72,0,0,0-3.523-9.678A275.157,275.157,0,0,1,157.5,103.32Z" style="fill:#f7954d"/><polygon points="68.767 30.178 310.179 30.178 310.179 10 68.767 18.355 68.767 30.178" style="fill:#ffd2b3"/><path d="M173.37,75.853l13.063.018a2.747,2.747,0,0,1,2.709,2.315l2.054,12.9a2.745,2.745,0,0,0,.768,1.508l9.224,9.249a2.748,2.748,0,0,1,.278,3.553l-7.67,10.574a2.751,2.751,0,0,0-.523,1.609l-.018,13.063a2.747,2.747,0,0,1-2.315,2.709l-12.9,2.054a2.745,2.745,0,0,0-1.508.768l-9.25,9.224a2.747,2.747,0,0,1-3.552.278l-10.574-7.67a2.751,2.751,0,0,0-1.609-.523l-13.063-.018a2.747,2.747,0,0,1-2.709-2.315l-2.054-12.9a2.752,2.752,0,0,0-.768-1.508l-9.224-9.249a2.748,2.748,0,0,1-.278-3.553l7.67-10.574a2.751,2.751,0,0,0,.523-1.609l.018-13.063a2.747,2.747,0,0,1,2.315-2.709l12.9-2.054a2.745,2.745,0,0,0,1.508-.768l9.249-9.224a2.748,2.748,0,0,1,3.553-.278l10.574,7.67A2.751,2.751,0,0,0,173.37,75.853Z" style="fill:#ffc7d8"/><path d="M166.124,130.111a19.519,19.519,0,0,1-13.051-4.978,17.016,17.016,0,0,1-5.677-12.445,14.788,14.788,0,0,1,4.623-11.118c3.774-3.544,7.441-4.056,9.855-3.866,5.625.448,9.226,4.912,9.618,5.419a4.131,4.131,0,1,1-6.537,5.052,6.338,6.338,0,0,0-3.768-2.238c-.4-.029-1.629-.114-3.512,1.655a6.582,6.582,0,0,0-2.018,4.994,8.866,8.866,0,0,0,2.921,6.388,11.352,11.352,0,0,0,16.009-.9,15.205,15.205,0,0,0-1.2-21.469,18.4,18.4,0,0,0-14.453-4.877c-5.218.67-9.829,3.81-13.333,9.084a4.131,4.131,0,1,1-6.881-4.572c4.8-7.225,11.607-11.737,19.164-12.706a26.627,26.627,0,0,1,21.008,6.912,23.465,23.465,0,0,1,1.857,33.134A19.56,19.56,0,0,1,166.124,130.111Z" style="fill:#fff"/><path d="M239.531,216.266H45.087c-1.98,69.792,35.7,92.438,53.039,98.682a14.475,14.475,0,0,1,6.95,5.331,499.048,499.048,0,0,0,74.466,0,14.474,14.474,0,0,1,6.952-5.331C203.832,308.7,241.511,286.056,239.531,216.266Z" style="fill:#e9ebfc"/><path d="M105.06,320.29a14.732,14.732,0,0,1,2.619,6.932v.009A3.1,3.1,0,0,0,110.761,330h63.1a3.1,3.1,0,0,0,3.081-2.769v-.009a14.743,14.743,0,0,1,2.619-6.932Z" style="fill:#acb9d4"/><path d="M47.4,248.859H237.221a139.456,139.456,0,0,0,2.044-16.621H45.354A139.257,139.257,0,0,0,47.4,248.859Z" style="fill:#acb9d4"/>
    </symbol>
    <symbol id="ic-kabuki" viewBox="0 0 340 340">
      <g stroke-linecap="round" stroke-linejoin="round"><path d="M99.314,220.912S85.83,256.551,31.328,265.884A14.342,14.342,0,0,0,19.39,278.812s3.771,13.3,11.433,13.63c21.381.91,71-1.845,97.34-54.771l2.057-16.759Z" style="fill:#ece7f2"></path><path d="M87.881,237.711c4.6.151,22.606.621,40.341-.522l2-16.277H99.314S96.413,228.568,87.881,237.711Z" style="fill:#a997c4"></path><path d="M85.013,240.624A37.886,37.886,0,0,0,112.68,261.2q3.009-3.48,5.856-7.444h0c-12.371-.28-23.4-8.013-27.449-19.243-.039-.108-.069-.224-.107-.332A75.312,75.312,0,0,1,85.013,240.624Z" style="fill:#8766a5"></path><path d="M69.086,252.623c-2.335,1.37-4.829,2.7-7.5,3.966a47.659,47.659,0,0,0,16.181,29.933c2.66-1.1,5.335-2.355,8.007-3.773C72.991,272.963,69.606,261.085,69.086,252.623Z" style="fill:#8766a5"></path><path d="M47.217,262.128q-4.218,1.3-8.865,2.359A45.212,45.212,0,0,0,42.114,294.2c2.738-.112,5.684-.336,8.785-.711C42.573,280.222,45.667,266.879,47.217,262.128Z" style="fill:#8766a5"></path><path d="M36.158,283.585a20.079,20.079,0,0,1-11.938-1.377,15,15,0,0,1-4.816-3.4c-.018.223-.044.444-.052.67,0,.134-.008.269-.011.4A14.172,14.172,0,0,0,33,294.2c21.381.91,68.822-3.6,95.161-56.524l2.057-16.759h-8.474C116.547,231.044,91.671,273.6,36.158,283.585Z" style="fill:#a997c4"></path><path d="M46.063,281.383c-2.522.67-5.133,1.251-7.8,1.778A43.223,43.223,0,0,0,42.114,294.2h0c.63-.026,1.274-.059,1.926-.1l.286-.017q1.005-.062,2.04-.143h.011q2.2-.175,4.521-.454A35.825,35.825,0,0,1,46.063,281.383Z" style="fill:#62497f"></path><path d="M74.25,269.853q-3.39,1.93-7.046,3.7a49.667,49.667,0,0,0,10.559,12.965q.992-.412,1.986-.851l.019-.009q3-1.325,6-2.913h0A43.728,43.728,0,0,1,74.25,269.853Z" style="fill:#62497f"></path><path d="M118.532,253.753a30.58,30.58,0,0,1-16.725-5.437c-1.8,1.876-3.728,3.767-5.786,5.652A38.487,38.487,0,0,0,112.68,261.2h0q.745-.862,1.482-1.755l.015-.018q2.226-2.7,4.359-5.671Z" style="fill:#62497f"></path><path d="M245.6,86.605l25.847-1.692S273.1,70.9,275,59.287a8.978,8.978,0,0,0-4.221-9.142L268.384,48.7a10.8,10.8,0,0,1-5.121-7.721c-.278-1.937-.56-4.4-.764-7.352a7.725,7.725,0,0,1,3.139-6.754,2.6,2.6,0,0,1,3.937,1.2L271.451,33l1.025-.967a5.153,5.153,0,0,0,1.6-4.236l-1.642-17.29c.246-2.786,1.74-4.856,4.537-4.856h0c2.909.468,3.591,1.926,3.975,3.9a29.245,29.245,0,0,1,.4,2.978l1.024,11.5a78.641,78.641,0,0,1,7.98-12.375,8.746,8.746,0,0,1,12.933-.789,31.436,31.436,0,0,1,7.6,11.574,8.769,8.769,0,0,1-1.1,8.166L295.317,50.765a9.825,9.825,0,0,0-1.823,6.339l2.112,33.946a13.135,13.135,0,0,1-7.277,12.586l-38.7,19.185Z" style="fill:#f2f2f2"></path><path d="M254.518,86.1l.029-.085-8.943.586,4.021,36.216,12.28-6.087C263.136,92.445,254.518,86.1,254.518,86.1Z" style="fill:#c4c4c4"></path><path d="M279.489,81.332l-6.974-4.894c-.651,4.964-1.064,8.475-1.064,8.475l7.152-.443A1.727,1.727,0,0,0,279.489,81.332Z" style="fill:#c4c4c4"></path><path d="M115.539,196.935,106.36,199.1c-13.667,2.464-25.539,1.929-33.462,0-16.788-4.086-28.262-21.446-25.215-38.454.1-.563.487-2.287.613-2.819,2.746-11.613,16.4-17.725,27.285-12.837,12.554,5.637,25.3,14.382,35.6,23.256a52.142,52.142,0,0,1,7.385-21.551c-3.863-5.366-20.454-26.7-46.325-36.278a33.849,33.849,0,0,0-40.769,13.849c-5.067,8.344-9.609,20.453-11.752,37.99a74.087,74.087,0,0,0,2.141,29.58c4.284,14.8,14.565,32.872,39.239,34.365,0,0,16.539-.66,35.084-1.07,14.851-.329,30.071-1.434,40.4-3.554C136.581,221.574,123.193,212.3,115.539,196.935Z" style="fill:#ece7f2"></path><path d="M49.429,158.874A18.982,18.982,0,0,1,75.777,146.1c12.554,5.637,25.124,14.987,35.419,23.861a68.852,68.852,0,0,1,2.421-11.557l-.193.106s-17.588-18.546-40.079-24.625A25.8,25.8,0,0,0,40.839,156.3c-.59,6.476.2,14.621,3.291,24.845,5.706,18.86-1.772,27.4-11.9,31.051,6.256,7.449,15.421,13.192,28.869,14,0,0,53.117,1.482,76.345-3.287,0,0-14.583-11.272-22.237-26.632l-9.076,1.523c-14.6,2.632-25.525,1.868-33.625-.393a32.614,32.614,0,0,1-23.684-35.1A31.122,31.122,0,0,1,49.429,158.874Z" style="fill:#a997c4"></path><path d="M261.8,237.377a164.345,164.345,0,0,1,48.326,6.315,7.206,7.206,0,0,1,4.632,9.563h0a7.22,7.22,0,0,1-8.552,4.329c-9.218-2.41-27.588-6.136-46.529-3.825Z" style="fill:#414151"></path><path d="M251.337,236.493s-34.482-.4-49.293,2.459l.5,19.918s30.891-3.52,49.065-2.02Z" style="fill:#414151"></path><path d="M255.622,225.128h0a6.624,6.624,0,0,1,6.568,6.779l-.619,26.423a6.624,6.624,0,0,1-6.842,6.466l-.631-.021a6.626,6.626,0,0,1-6.4-6.934l1.25-26.4A6.625,6.625,0,0,1,255.622,225.128Z" style="fill:#414151"></path><path d="M258.752,189.253a163.36,163.36,0,0,1,47.608-10.677,7.232,7.232,0,0,1,7.7,7.4h0a7.219,7.219,0,0,1-6.561,6.986c-9.487.881-28.026,3.645-45.042,12.281Z" style="fill:#414151"></path><path d="M248.733,191.861s-32.547,11.393-45.495,19.13l7.264,18.553s27.836-13.849,45.431-18.64Z" style="fill:#414151"></path><path d="M248.884,179.716h0a6.625,6.625,0,0,1,8.487,4.131l8.434,25.048a6.625,6.625,0,0,1-4.226,8.413l-.6.195a6.624,6.624,0,0,1-8.38-4.335l-7.833-25.243A6.624,6.624,0,0,1,248.884,179.716Z" style="fill:#414151"></path><path d="M129.376,241.233s-25.505,26.2-55.277,41.6a49.915,49.915,0,0,0-18,15.443,76.123,76.123,0,0,0-12.873,31.475,3.953,3.953,0,0,0,3.892,4.6h85.313l181.638-2.089c2.742,0,3.251-2.128,2.266-4.687-2.913-7.569-6.07-20.4-23.46-32.339L216.9,249.427Z" style="fill:#f74f73"></path><path d="M292.872,295.235,216.9,249.427l-88.687-8.811a72.033,72.033,0,0,1-11.989,12.812,93.543,93.543,0,0,0,24.92,15.894,15.314,15.314,0,0,1,7.793,7.649h0a15.146,15.146,0,0,1-.758,14.019c-5.52,9.271-14.7,26.934-15.747,43.36H316.991a3.9,3.9,0,0,0,3.626-5.31C317.7,321.471,310.263,307.175,292.872,295.235Zm-88.044-4.993c-4.2-3.238-10.515-8.972-13.579-16.05l13.473-1.232a2.261,2.261,0,0,1,2.456,2.033l1.286,13.243A2.261,2.261,0,0,1,204.828,290.242Z" style="fill:#c12140"></path><path d="M237.327,252.756l14.744,4.915c11.334,4.614,27.312,12.941,40.974,26.864,6.314,6.434,9.365,12.212,11.068,19.772.289,1.281.355,2.894.553,4.62a9.155,9.155,0,0,1-13.419,9.107l-2.436-1.305s-.608.7-1.655,1.775a25.163,25.163,0,0,1-4.108,2.913,12.3,12.3,0,0,1-10.1-.867,27.476,27.476,0,0,1-8.566-7.842,131.825,131.825,0,0,1-7.12-14.858Z" style="fill:#90abe2"></path><path d="M248.356,111.391c13.123-3.369,28.873-9.542,32.119-20.14,4.347-14.2-2.08-26.636-5.489-31.879-.258,1.579-.512,3.2-.757,4.827a66.2,66.2,0,0,1,2.512,15.1A16.161,16.161,0,0,1,268,94.648a64.91,64.91,0,0,1-20.851,5.905Z" style="fill:#f74f73"></path><path d="M260.46,97.69a72.964,72.964,0,0,1-13.307,2.863l1.2,10.838a103.482,103.482,0,0,0,13.5-4.391A53.513,53.513,0,0,0,260.46,97.69Z" style="fill:#c12140"></path><path d="M125.616,214.9s-6.433,7.848-5.565,23.525a11.731,11.731,0,0,0,6.324,10.27c12.466,6.554,43.9,19.153,89.984,7.76l4.667-33-6-14.318Z" style="fill:#90abe2"></path><path d="M215.026,209.136l-46.12,2.845-43.766,2.7s-6.491,8.022-5.623,23.7a12.827,12.827,0,0,0,6.831,10.652c9.114,4.792,28.391,12.622,56.1,12.042L177.32,242.34a8.842,8.842,0,0,1,6.2-10.855,20.162,20.162,0,0,0,5.47,10.147,25.207,25.207,0,0,0,9.319,6.046l2.712,1.031a5.836,5.836,0,0,1,3.956,5.524,44.825,44.825,0,0,0,.313,4.556c3.594-.634,7.279-1.4,11.073-2.335l4.667-33Z" style="fill:#4b64aa"></path><path d="M156.9,214.68l3.3,10.448a79.73,79.73,0,0,0,4.249,13.441l6.3,19.946a90.175,90.175,0,0,0,3.658,11.573l.852,2.7a29.732,29.732,0,0,0,5.97,10.662,71.751,71.751,0,0,0,12.068,10.713s6.065,3.6,4.74,6.05h0a6.366,6.366,0,0,1-7.937,2.888l-7.805-3.086,4.954,19.823c1.287,3.595,1.076,7.04-2.663,7.818h0c-3.06.636-5.3-2.595-6.369-5.532l-5.4-11.051-1.616,10.308a8.843,8.843,0,0,1-11.985,6.856,27.006,27.006,0,0,1-7.318-4.2A11.029,11.029,0,0,1,148.2,313.8a88.425,88.425,0,0,1,7.77-24.96,13.945,13.945,0,0,0-.01-12.4L148.127,260.6a173.575,173.575,0,0,0-9.882-19.981L125.419,214.68Z" style="fill:#fff"></path><path d="M156.9,214.68H125.419l5.826,11.78a72.118,72.118,0,0,0,31,5.135Z" style="fill:#d8d8d8"></path><path d="M195.22,217.352a39.815,39.815,0,0,1-2.67,5.849,36.611,36.611,0,0,0-2.416,7.163,12.287,12.287,0,0,0,5.31,8.63,83.149,83.149,0,0,0,10.421,5.93,14.619,14.619,0,0,1,1.862.559,8.247,8.247,0,0,0,11.539-4.616l4.882-15.329s.721-11.206-8.064-18.344Z" style="fill:#90abe2"></path><path d="M223.16,216.461l.031-.028a25.255,25.255,0,0,0-7.107-9.33L195.22,217.261a38.5,38.5,0,0,0-3.649,5.466,12.31,12.31,0,0,0-1.421,7.635,108.778,108.778,0,0,0,17.247-4.911,1.728,1.728,0,0,1,2.271,2.138,95.388,95.388,0,0,0-3.8,17.332c.494.238.992.476,1.509.714a8.681,8.681,0,0,0,11.91-4.818l6.133-16.053A25.6,25.6,0,0,0,223.16,216.461Z" style="fill:#4b64aa"></path><path d="M111.822,199.542S106,213.412,120.144,217.3s38.81.051,38.81.051S152.323,196.491,111.822,199.542Z" style="fill:#c12140"></path><path d="M227.388,82.541H241.1a12.529,12.529,0,0,1,12.01,8.79c2.339,7.636,4.054,20-.686,36.089a16.962,16.962,0,0,1-4.95,7.949,13.438,13.438,0,0,1-11.732,3.44Z" style="fill:#c12140"></path><path d="M148.045,108.248a138.652,138.652,0,0,0-41.014,41.527,21.856,21.856,0,0,0-3.241,9.514,156.61,156.61,0,0,0,.231,33.831,8.753,8.753,0,0,0,2.108,4.682h0a8.694,8.694,0,0,0,7.4,2.886c9.24-.923,31.275-.973,45.429,16.659,0,0,13.477,8.021,43.961,0,0,0,26.645-9.256,28.277-30.914a11.742,11.742,0,0,0-2.2-7.71l-6.5-9.06a11.537,11.537,0,0,1-2.14-6.005l-.092-1.473a11.538,11.538,0,0,1,3.7-9.207L236.53,141.41a14.007,14.007,0,0,0,4.4-8.487c1.269-9.675,2.989-30.839-3.591-45.16a13.637,13.637,0,0,0-10.854-7.84c-5.565-.637-13.717-.983-20.684,1.05Z" style="fill:#f74f73"></path><path d="M193.445,167.168l-9.874-30.584c1.749,32.08,2.9,61.942,1.948,83.954a101.322,101.322,0,0,0,10.324-1.553Z" style="fill:#c12140"></path><path d="M219.382,124.612c11.518-11.519,13.555-27.439,11.136-43.559a13.68,13.68,0,0,0-4.032-1.13c-5.564-.637-13.716-.983-20.683,1.05l-42.521,20.08h0l-15.237,7.2-.054.032-.089.055-.095.059-.183.113-.084.054c-.277.174-.666.424-1.159.75l-.063.041c-.175.116-.36.24-.559.374l-.013.009c-.734.494-1.614,1.1-2.643,1.841l0,.006c-1.6,1.154-3.525,2.6-5.687,4.343,1.016,7.872,4.379,17.47,14.019,22.714,2.92,5.647,9.987,20.391,9.987,20.391l-.228,35.629s4.628,15.49-2.237,22.688a26.81,26.81,0,0,0,7.686,2.519c1.962-4.8,4.324-13.668,2.476-26.122,0,0,8.882-15.666,7.9-40.585a12.7,12.7,0,0,1,9.683-12.953c3.753-.879,7.787-2.031,12.126-3.491q1.264-.425,2.469-.883a7.538,7.538,0,0,1,9.758,4.433A95.226,95.226,0,0,1,216,160.228a6.166,6.166,0,0,0,4.432,4.23c-.036-.265-.062-.531-.079-.8l-.092-1.473a11.539,11.539,0,0,1,3.7-9.207l6.226-5.731h0l-6.66-17.372A54.726,54.726,0,0,0,219.382,124.612Z" style="fill:#c12140"></path><path d="M144.553,106.671l-7.494,1.03a21.236,21.236,0,0,0-5.633,3.216,17.046,17.046,0,0,0-6.021,16.2,11.931,11.931,0,0,0,4.37,7.514,20.563,20.563,0,0,1,6.652,5.286A78.284,78.284,0,0,1,143.309,147a16.634,16.634,0,0,1,5,6.494A75.2,75.2,0,0,1,153.394,162a19.5,19.5,0,0,1,3.373,7.686,71.392,71.392,0,0,1,4.425,24.97,71.45,71.45,0,0,0,8.15-29.694l.014-8.009a69.94,69.94,0,0,0-1.8-12.414l-2.437-8.062a76.679,76.679,0,0,0-6.989-14.181Z" style="fill:#ece7f2"></path><path d="M167.027,142.488a74.825,74.825,0,0,0-8.9-20.189l-13.671-16.264a24.792,24.792,0,0,0-7.4,1.667C136.671,117.7,138.739,141.491,167.027,142.488Z" style="fill:#a997c4"></path><path d="M193.445,99.623a37.115,37.115,0,0,1,5.855,5.817,23.185,23.185,0,0,1,4.956,6.735,81.95,81.95,0,0,1,4.121,7.152,43.915,43.915,0,0,1,3.446,7.529c1.011,2.483,1.986,5.161,2.9,8.043a23.35,23.35,0,0,1,2.246,8.033,145.88,145.88,0,0,1,3.293,19.253s13.016-5.507,13.464-23.048l-.461-8.326a62.769,62.769,0,0,0-2.445-10.977l-3.261-8.078a49.638,49.638,0,0,0-7.511-11.142l-6.707-6.123a48.618,48.618,0,0,0-11.7-6.394Z" style="fill:#ece7f2"></path><path d="M201.642,88.1l-8.2,11.526a37.186,37.186,0,0,1,5.854,5.818,23.138,23.138,0,0,1,4.955,6.735,81.829,81.829,0,0,1,4.121,7.153,26.637,26.637,0,0,1,3.446,7.528q.6,1.464,1.174,3.018a39.83,39.83,0,0,0,14.772-17.684,49.86,49.86,0,0,0-7.719-11.575l-6.706-6.124A48.54,48.54,0,0,0,201.642,88.1Z" style="fill:#a997c4"></path><polygon points="164.528 122.23 173.207 135.716 184.418 136.584 191.539 125.965 190.327 99.76 164.528 122.23" style="fill:#b3b3b3"></polygon><path d="M213.33,94.508A37.542,37.542,0,0,0,199.3,105.443a66.933,66.933,0,0,1,4.954,6.735c2.376-3.354,7.591-9.332,15.8-11.562A45.879,45.879,0,0,0,213.33,94.508Z" style="fill:#62497f"></path><path d="M209.346,118.544q-.5.4-.971.785c1.17,2.281,2.33,4.784,3.447,7.527.772-.645,1.63-1.351,2.527-2.069a23.007,23.007,0,0,1,16.467-4.951,57.716,57.716,0,0,0-3.265-8.075A31.1,31.1,0,0,0,209.346,118.544Z" style="fill:#8766a5"></path><path d="M214.716,134.9c.8,2.521,1.557,5.191,2.249,8.032,3.378-2.351,9.913-5.846,16.758-3.8.028-1.087.012-2.215-.063-3.4a43.688,43.688,0,0,0-.4-4.928C225.865,129.56,219.168,132.275,214.716,134.9Z" style="fill:#8766a5"></path><path d="M158.128,122.3l-3.969-4.721a38.218,38.218,0,0,0-7.545,1.786,28.089,28.089,0,0,0-16.827,15.249c.176.138.339.282.528.414a54.511,54.511,0,0,1,6.111,4.888c1.454-5.777,6.29-10.712,12.83-13a31.3,31.3,0,0,1,10.6-1.7C159.31,124.246,158.737,123.274,158.128,122.3Z" style="fill:#8766a5"></path><path d="M165.114,136.481c-.855.009-1.709.04-2.569.105-5.847.438-12.234,3.583-17.525,8.628-.613.584-1.182,1.183-1.716,1.785a78.458,78.458,0,0,1,5,6.494A22.812,22.812,0,0,1,150.54,151c3.917-3.735,8.629-6.142,12.6-6.441a31.346,31.346,0,0,1,4.41-.021q-.245-1.023-.523-2.055S165.86,138.506,165.114,136.481Z" style="fill:#8766a5"></path><path d="M153.382,162.009a72.073,72.073,0,0,1,3.371,7.686c1.95-2.019,5.878-4.814,12.587-4.731a71.674,71.674,0,0,0,.013-8.008A24.787,24.787,0,0,0,153.382,162.009Z" style="fill:#8766a5"></path><path d="M154.159,117.578a38.218,38.218,0,0,0-7.545,1.786,30.345,30.345,0,0,0-7.561,3.905,29.893,29.893,0,0,0,3.539,7.338,22.218,22.218,0,0,1,6.664-3.692,31.3,31.3,0,0,1,10.6-1.7c-.551-.97-1.124-1.942-1.733-2.917Z" style="fill:#62497f"></path><path d="M167.029,142.488q-.8-2.966-1.915-6.007c-.855.009-1.709.04-2.569.105a25.03,25.03,0,0,0-9.516,2.869A36.215,36.215,0,0,0,167.029,142.488Z" style="fill:#62497f"></path><path d="M96.181,123.865c-2.193-1.682-4.529-3.336-7-4.923-9.631,7.4-11.791,19.2-11.886,27.868,2.728,1.289,5.453,2.739,8.15,4.32C84.914,143.761,85.552,130.167,96.181,123.865Z" style="fill:#8766a5"></path><path d="M56.545,148.113a19.155,19.155,0,0,1,7.433-3.307q-1.864-2.67-3.657-5.445a34.419,34.419,0,0,1-3.367-30.939,34.175,34.175,0,0,0-9.025,2.117A42.623,42.623,0,0,0,53.6,143.7C54.561,145.19,55.548,146.66,56.545,148.113Z" style="fill:#8766a5"></path><path d="M48.626,164.791a31.8,31.8,0,0,1,.462-4.274q.151-.844.341-1.643a19.281,19.281,0,0,1,.585-1.979,37.814,37.814,0,0,1-26.22-14.821q-1.3,4.368-2.344,9.465A45.558,45.558,0,0,0,48.626,164.791Z" style="fill:#8766a5"></path><path d="M19.792,181.9a69.152,69.152,0,0,0,1.728,8.635,48.441,48.441,0,0,0,9.428.933,46.93,46.93,0,0,0,23.867-6.521,32.8,32.8,0,0,1-3.893-7A39.371,39.371,0,0,1,19.792,181.9Z" style="fill:#8766a5"></path><path d="M78.7,135.6a47.69,47.69,0,0,0-1.406,11.211q.979.464,1.958.954l.18.091q.912.459,1.824.941l.383.205c.56.3,1.119.6,1.678.914.174.1.347.2.52.3.536.3,1.072.606,1.606.919h0a43.992,43.992,0,0,1,.76-12.314A76.514,76.514,0,0,0,78.7,135.6Z" style="fill:#62497f"></path><path d="M72.9,197.5a33.783,33.783,0,0,1-7.409-3.076,27.7,27.7,0,0,1-6.822,11.194,30.28,30.28,0,0,1-8.677,6.07,65.746,65.746,0,0,1-13.358,5,37.342,37.342,0,0,0,8.732,5.685c2.868-1.074,5.685-2.324,8.066-3.457a38.249,38.249,0,0,0,10.952-7.695A35.669,35.669,0,0,0,72.9,197.5Z" style="fill:#62497f"></path><path d="M86.81,226.385A43.432,43.432,0,0,0,96.659,199.1c-2.839.258-5.505.369-8.018.363a35.8,35.8,0,0,1-13.06,26.945C78.956,226.422,82.759,226.421,86.81,226.385Z" style="fill:#62497f"></path><path d="M195.868,95.921s.831-.364,2.183-1.115a40.471,40.471,0,0,0,19.434-44.829c-3.331-14.028-12.72-32.449-39.065-32.449,0,0-29.833-.807-41.368,31.273a45.955,45.955,0,0,0-2.068,24.684c1.5,7.34,5.236,15.544,14.039,20.285Z" style="fill:#383a3d"></path><path d="M189.893,85.166s7.409-3.346,9.8,4.3c0,0,2.629,11.95-12.19,17.686,0,0-.466.958-1.344,2.454l-4.092,6.043c-3.78,4.853-9.335,10.178-16.034,11.218a14.858,14.858,0,0,1-2.692.138c-3.858-.1-13.316-1.182-17.934-8.96a16.137,16.137,0,0,1-1.994-5.883c-.127-.854-.279-1.946-.437-3.248l-.785-8.52a158.23,158.23,0,0,1,.38-25.508,43.563,43.563,0,0,1,2.845-10.144l4.988-8.7a24.908,24.908,0,0,1,20.457-9.838,20.269,20.269,0,0,1,12.32,3.827l5.2,6.084C191.486,61.861,192.894,70.911,189.893,85.166Z" style="fill:#fff"></path><path d="M166.114,112.875a2.987,2.987,0,0,1-1.682-.518c-4.539-3.082-9.389-.087-9.594.042a3,3,0,0,1-3.258-5.039c.337-.219,8.342-5.314,16.221.032a3,3,0,0,1-1.687,5.483Z" style="fill:#f74f73"></path><path d="M151.6,90.778a3,3,0,0,1-.827-.117l-3.441-.985a3,3,0,1,1,1.653-5.768l3.44.985a3,3,0,0,1-.825,5.885Z" style="fill:#515456"></path><path d="M167.575,91.179a3,3,0,0,1-1.056-5.81l3.922-1.473a3,3,0,0,1,2.11,5.617l-3.922,1.473A2.981,2.981,0,0,1,167.575,91.179Z" style="fill:#515456"></path><path d="M188.376,56.12a18.419,18.419,0,0,0-5.2-6.083,48.767,48.767,0,0,0-4.7,3.946A40.615,40.615,0,0,0,167.816,78.3a2.12,2.12,0,0,0,4.1.947C174.683,71.571,179.637,62.382,188.376,56.12Z" style="fill:#f74f73"></path><path d="M145.418,64.745a126.889,126.889,0,0,1,3.439,12.938,1.83,1.83,0,0,0,3.612-.226,59.768,59.768,0,0,0-2.058-21.4A36.652,36.652,0,0,0,145.418,64.745Z" style="fill:#f74f73"></path><path d="M186.157,109.607A62.249,62.249,0,0,1,173.2,96.386a1.932,1.932,0,0,0-3.4,1.722,33.67,33.67,0,0,0,12.265,17.541A56.446,56.446,0,0,0,186.157,109.607Z" style="fill:#f74f73"></path><path d="M146.032,96.439a39.961,39.961,0,0,1-3.841,3.957c.219,3.387.512,6.261.786,8.52a25.694,25.694,0,0,0,6.557-10.608A2.022,2.022,0,0,0,146.032,96.439Z" style="fill:#f74f73"></path><path d="M293.92,63.955l-.426-6.851c-.006-.094,0-.188-.005-.281-2.789,3.392-8.208,11.592-8.543,24.42A47.42,47.42,0,0,0,289.4,103.03a13.125,13.125,0,0,0,5.281-6.273C291.489,89.977,288.581,78.581,293.92,63.955Z" style="fill:#f74f73"></path><path d="M279.489,81.332l-2.746-1.927a16.744,16.744,0,0,1-.6,5.217l2.457-.152A1.727,1.727,0,0,0,279.489,81.332Z" style="fill:#c12140"></path><path d="M173.207,135.716l20.238,31.452-1.906-41.2C186.483,131.935,179.823,134.685,173.207,135.716Z" style="fill:#4b64aa"></path><path d="M256.95,298.415a56.053,56.053,0,0,0,7.441,14.289c4.547-27.751-6.638-47.227-12.32-55.033a104.4,104.4,0,0,0-14.744-4.915Z" style="fill:#4b64aa"></path><path d="M218.6,257.37s-1.244,28.453,2.422,44.321c0,0,4.487,22.98,22.543,20.518,0,0,16.794-3.708,14.94-26.506a47.515,47.515,0,0,0-3.365-13.845A193.558,193.558,0,0,0,242.8,256.6s-6.052-8.866-9.391-13.145Z" style="fill:#90abe2"></path><path d="M224.148,252.16a94.808,94.808,0,0,1,14.344,32.15,22.778,22.778,0,0,1,.514,3.315c.1,1.19.2,2.837.192,4.616a3.434,3.434,0,0,1-6.3,1.88,27.185,27.185,0,0,1-2.641-5,.923.923,0,0,0-1.765.5,49.1,49.1,0,0,0,4.834,14.581,15.1,15.1,0,0,0,1.539,2.466c2.672,3.382,8.142,1.864,8.957-2.369,4.278-22.227-7.439-47.221-13.384-58.055Z" style="fill:#4b64aa"></path><path d="M280.541,298.069c1.879,6.126,3.994,15.5,2.5,23.342a11.231,11.231,0,0,0,4.234-2.718,10.056,10.056,0,0,0,1.532-1.964s1.29-7.519-6.454-19.5A1.01,1.01,0,0,0,280.541,298.069Z" style="fill:#4b64aa"></path><path d="M233.74,243.144,218.6,257.37s-.333,7.66-.144,17.243L242.8,256.6A125.78,125.78,0,0,0,233.74,243.144Z" style="fill:#4b64aa"></path><path d="M164.455,238.569,162.25,231.6a28.054,28.054,0,0,1-2.044-6.467c-2.416,4.369-6.928,15.825,1.214,30.688a37.319,37.319,0,0,0,13,14.272l-3.658-11.573C164.177,253.367,163.927,244.061,164.455,238.569Z" style="fill:#f74f73"></path><path d="M227.761,112.206c-.073-.148-.136-.3-.21-.445a31.1,31.1,0,0,0-18.2,6.783q-.5.4-.971.785c1.17,2.281,2.33,4.784,3.447,7.527.772-.645,1.63-1.351,2.527-2.069a22.992,22.992,0,0,1,8.624-4.29A38.956,38.956,0,0,0,227.761,112.206Z" style="fill:#62497f"></path><path d="M160.206,225.128a27.614,27.614,0,0,0-2.561,6.588c1.5.01,3.037-.024,4.6-.121Z" style="fill:#c12140"></path><path d="M215.542,223.673a75.849,75.849,0,0,0-6.121,30.865,8.307,8.307,0,0,0,6.411,8h0a8.3,8.3,0,0,0,8.454-3.008l10.966-14.2a9.828,9.828,0,0,0,1.9-7.84c-1.007-5.268-3.6-13.7-10.152-17.645A8.072,8.072,0,0,0,215.542,223.673Z" style="fill:#90abe2"></path><path d="M53.6,143.7c.963,1.494,1.95,2.964,2.947,4.417h0a19.078,19.078,0,0,1,3.531-2.05h0a19.334,19.334,0,0,1,1.911-.731h0a19.186,19.186,0,0,1,1.985-.525h0q-1.864-2.67-3.657-5.445a35.238,35.238,0,0,1-2.593-4.833,26.1,26.1,0,0,0-7.036,3.86A43.047,43.047,0,0,0,53.6,143.7Z" style="fill:#62497f"></path><path d="M48.776,162.755c0-.049.009-.1.014-.146.012-.1.018-.2.03-.3.074-.61.163-1.2.267-1.78v-.011q.151-.844.341-1.643a19.281,19.281,0,0,1,.585-1.979,40.3,40.3,0,0,1-8.991-2.118c-.075.5-.138,1.008-.184,1.52a48,48,0,0,0-.091,6.829,48.781,48.781,0,0,0,7.876,1.665Q48.668,163.776,48.776,162.755Z" style="fill:#62497f"></path><path d="M50.871,177.976a40.974,40.974,0,0,1-6.741,3.164v0a47.221,47.221,0,0,1,1.719,7.882,48.512,48.512,0,0,0,8.885-4.035A32.745,32.745,0,0,1,50.871,177.976Z" style="fill:#62497f"></path><path d="M188.115,98.6c.084-2.419.628-6.3,3-9.2a3.086,3.086,0,0,1,4.008-.69l.047.031a5.806,5.806,0,0,1,.742.586.417.417,0,0,1-.368.713c-1.274-.254-3.277-.133-4.179,2.706a.8.8,0,0,0,.721,1.051,2.389,2.389,0,0,1,2.375,1.872A3.684,3.684,0,0,1,194,98.532a7.517,7.517,0,0,1-1.981,2.208A2.487,2.487,0,0,1,188.115,98.6Z" style="fill:#b3b3b3"></path><path d="M164.857,307.345a2.057,2.057,0,0,0-2.553,1.419,108.4,108.4,0,0,0-3.35,19.35c.092.038.185.083.276.119a8.767,8.767,0,0,0,4.871.469c.379-4.7,1.117-12.6,2.222-19.037A2.054,2.054,0,0,0,164.857,307.345Z" style="fill:#d8d8d8"></path><path d="M156.386,306.63h0a1.9,1.9,0,0,0-2.478,1.065,95.712,95.712,0,0,0-4.14,13.864,10.37,10.37,0,0,0,2.144,2.478,22.451,22.451,0,0,0,1.918,1.412c.809-4.34,2.158-11.062,3.686-16.551A1.9,1.9,0,0,0,156.386,306.63Z" style="fill:#d8d8d8"></path><path d="M281.312,39.935a.8.8,0,0,0,1.44-.642,8.4,8.4,0,0,0-2.086-4.149,7.511,7.511,0,0,0-3.28-1.952l-.658-.2a4.336,4.336,0,0,1-2.836-3.3,5.143,5.143,0,0,1-1.416,2.34L271.451,33l.825,2.621S278.327,35.345,281.312,39.935Z" style="fill:#c4c4c4"></path><path d="M307.474,15.865l-12,15.939-3.839-3.07,11.174-18.273a8.732,8.732,0,0,0-2.641-1.55L287.755,25.629l-1.086,1.362a1.8,1.8,0,0,0,.258,2.51l8.952,7.431a1.643,1.643,0,0,0,2.442-.393l1.026-1.641-.033-.027,9.828-16.247A30.975,30.975,0,0,0,307.474,15.865Z" style="fill:#c4c4c4"></path><path d="M167.524,288.317c-4-21.3-17.636-37.851-29.279-47.7l9.882,19.981c6.736,7.177,11.089,15.516,14.064,22.289.357.876,2.716,7.016,1.268,12.888a1.2,1.2,0,0,0,2.095,1.028,9.834,9.834,0,0,0,2.1-4.942A11.1,11.1,0,0,0,167.524,288.317Z" style="fill:#f74f73"></path></g>
    </symbol>
    <symbol id="ic-tsunami" viewBox="0 0 340 340">
      <g stroke-linecap="round" stroke-linejoin="round"><path d="M58.908,100.04a163.2,163.2,0,0,1-43.934,35.6A9.573,9.573,0,0,0,10,144v32.02l1.822,8.9L41.484,164.3Z" style="fill:#346b99"></path><path d="M10,176.017s19.081-13.177,35.5-51.478c0,0,24.44-64.93,91.558-78.792,0,0,29.508-9.193,65.739.211A88.371,88.371,0,0,1,248.8,74.709a65.232,65.232,0,0,1,11.869,20.527,4.2,4.2,0,0,1-5.9,5.1c-5.277-2.849-12.855-4.7-22.093-.746l-54.034,21.3,1.11,144.674L10,278.838Z" style="fill:#eefaff"></path><path d="M126.841,212.359a17.28,17.28,0,0,0-18.475-5.211,15.733,15.733,0,0,0-7.731,4.573C73.27,243.81,35.779,257.719,10,261.13v11.057l2.184,6.48L126.841,269.7Z" style="fill:#96c1d6"></path><path d="M130.126,136.764s-28.273,2.953-43.9,26.507a8.225,8.225,0,0,0,6.875,12.746h40.676Z" style="fill:#96c1d6"></path><path d="M232.673,99.594s-31.976,12.5-44.9,55.3a60.782,60.782,0,0,0-.449,34.516c4.49,15.442,16.593,33.758,47.894,41.016l-55.465,35.142s-76.613-8.2-62.308-109.291c1.628-11.506,5.456-29.635,11.7-39.437C145.527,98.429,178.22,98.531,191,102.2c2.789.8,18-10.167,21.61-11.291,5.658-1.763,9.949-.729,14.3,3.3C228.677,95.837,231.823,96.619,232.673,99.594Z" style="fill:#6295d3"></path><path d="M204.122,103.95C211.7,98.929,218,101.059,222.76,105.2a55.672,55.672,0,0,1,9.913-5.6,14.683,14.683,0,0,0-4.223-6.824A16.577,16.577,0,0,0,212.2,89.439a42.66,42.66,0,0,0-9.458,4.483A16.066,16.066,0,0,1,180.96,89.49c-.273-.4-.508-.786-.709-1.134a1.741,1.741,0,0,0-2.622-.483L171.922,92.6a17.57,17.57,0,0,1-11.2,4.034h-2.914a24.042,24.042,0,0,0-14.311,4.642,57.938,57.938,0,0,0-14.413,15.653l0,0c6.209-4.429,13.786-7.954,22.086-7.789,0,0,13.023,5.619,23.126-5.188C174.3,103.95,186.183,115.838,204.122,103.95Z" style="fill:#346b99"></path><path d="M115.674,179.306c-.089,14.785-2.852,32.3.737,42.475l63.338,43.784,55.465-35.142a83.937,83.937,0,0,1-18.056-6.28c-8.485,9.151-29.572,9.143-29.572,9.143-54.038-16.233-42.707-69.315-42.707-69.315S127.564,172.674,115.674,179.306Z" style="fill:#346b99"></path><path d="M77.205,180.049s18.864-33.427,60.14-27.734a9.572,9.572,0,0,1,7.38,5.231c1.774,3.729,1.405,9.28-9.551,15.18,0,0,6.89,14.646-11.243,20.922,0,0,5.16,6.526.762,16.674,0,0-6.3,10.277-15.675,17.041l-10.2-13.556Z" style="fill:#eefaff"></path><path d="M108.239,228.519c9.376-6.765,14.184-12.963,16.452-18.2a17.183,17.183,0,0,0-16.325-3.173,18.969,18.969,0,0,0-7.731,4.573,20.408,20.408,0,0,0-1.815,2.086Z" style="fill:#96c1d6"></path><path d="M220.186,154.064h0a10.426,10.426,0,0,0-2.611,11.069,14.724,14.724,0,0,0,2.169,3.926c6.048,7.82,18.573,3.354,18.594-6.532,0-.117,0-.235,0-.355A10.613,10.613,0,0,0,237,157.089c-.127-.228-.265-.47-.413-.724A10.521,10.521,0,0,0,220.186,154.064Z" style="fill:#6295d3"></path><path d="M177.428,206.592c-.819-1.818-1.585-3.693-2.277-5.571a4,4,0,0,0-7.507,2.765c.756,2.053,1.594,4.1,2.49,6.091,5.705,12.666,19.39,28.433,37.823,37.815l8.012-5.076C195.856,234.031,182.1,216.969,177.428,206.592Z" style="fill:#346b99"></path><circle cx="295.232" cy="152.387" r="7.026" style="fill:#6295d3"></circle><path d="M268.551,211.309c11.724,6.359,32.559,16.857,47.277,22.744l11.1,4.854L330,253.432v44.845H315.828L158.92,291.363l.362-37.2s54.434-3,94.107-40.846A12.31,12.31,0,0,1,268.551,211.309Z" style="fill:#346b99"></path><path d="M316.5,232.381c-14.72-5.888-35.245-16.682-46.967-23.04a13.861,13.861,0,0,0-16.186,2.193c-39.673,37.855-94.062,39.746-94.062,39.746l-2.676,47H215.1a75.867,75.867,0,0,0,3.559-17.479,65.586,65.586,0,0,1,1.272-8.291,22.529,22.529,0,0,1,28.336-16.622l33.656,9.863a2.129,2.129,0,0,0,1.958-3.682c-5.853-4.827-12.86-10.264-18.262-14.388a8.588,8.588,0,0,1-.186-13.493l.169-.137a8.177,8.177,0,0,1,9.3-.754c14.822,8.677,42.455,16.719,55.106,20.138v-18.04C324.771,236.4,316.5,232.381,316.5,232.381Z" style="fill:#eefaff"></path><path d="M218.656,280.8a65.586,65.586,0,0,1,1.272-8.291,22.31,22.31,0,0,1,3.425-7.823,352.913,352.913,0,0,1-42.477-16.475,137.329,137.329,0,0,1-21.594,3.071l-2.676,47H215.1A75.867,75.867,0,0,0,218.656,280.8Z" style="fill:#96c1d6"></path><path d="M124.282,224.911c21.082,18.306,80.023,57.47,191.546,73.366-28.49-1.192-58.23-2.69-70.884,0H145c-11.493-2.291-22.269-2.779-31.747,0h-59.1l-41.082-1.9L10,274.636s53.272-7.039,96.889-49.056C112.005,220.651,118.918,220.253,124.282,224.911Z" style="fill:#6295d3"></path><path d="M107.013,252.085a74.235,74.235,0,0,1,6.325-4.259,13.86,13.86,0,0,1,15.742,1.063c36.662,28.922,89.9,43.591,115.864,49.388h70.884c-111.523-15.9-169.679-56.942-190.761-75.248a13.725,13.725,0,0,0-18.518.431C62.932,265.478,10,272.187,10,272.187v26.09H54.148c3.908-11.363,9.086-17.4,13.725-20.569a12.918,12.918,0,0,1,15.946,1.181c8.457,7.63,19.652,14.322,29.434,19.388H145a195.532,195.532,0,0,1-38.388-24.308A13.846,13.846,0,0,1,107.013,252.085Z" style="fill:#eefaff"></path><path d="M69.27,201.591a8.066,8.066,0,0,1-1.5-.152,7.54,7.54,0,0,1-1.445-.445,7.267,7.267,0,0,1-1.33-.713,6.966,6.966,0,0,1-2.119-2.118,7.813,7.813,0,0,1-1.157-2.776,7.454,7.454,0,0,1,0-3,7.425,7.425,0,0,1,.444-1.445,7.324,7.324,0,0,1,.713-1.33,7.869,7.869,0,0,1,.944-1.174,7.778,7.778,0,0,1,6.955-2.1,7.345,7.345,0,0,1,1.446.426,9.409,9.409,0,0,1,1.329.713,8.044,8.044,0,0,1,1.175.963,9.43,9.43,0,0,1,.963,1.174,7.3,7.3,0,0,1,.695,1.33,7.423,7.423,0,0,1,.443,1.445,7.407,7.407,0,0,1,0,3,7.465,7.465,0,0,1-.443,1.445,7.371,7.371,0,0,1-.695,1.331,9.43,9.43,0,0,1-.963,1.174A7.759,7.759,0,0,1,69.27,201.591Z" style="fill:#5c91c4"></path><path d="M251.79,128.256a4.151,4.151,0,0,1-.79-.08,4.028,4.028,0,0,1-.74-.229,3.753,3.753,0,0,1-.69-.361,4.148,4.148,0,0,1-.61-.5,3.963,3.963,0,1,1,5.05.5,4.529,4.529,0,0,1-.69.361,4.382,4.382,0,0,1-.75.229A4.049,4.049,0,0,1,251.79,128.256Z" style="fill:#346b99"></path><path d="M276.843,191.348a4.012,4.012,0,0,1-4-3.99,4.234,4.234,0,0,1,.08-.79,3.956,3.956,0,0,1,.23-.74,4.049,4.049,0,0,1,.87-1.3,4.025,4.025,0,0,1,4.35-.87,3.782,3.782,0,0,1,.69.37,4,4,0,0,1,1.11,1.11,3.782,3.782,0,0,1,.37.69,4.87,4.87,0,0,1,.23.74,4.219,4.219,0,0,1,.07.79,3.995,3.995,0,0,1-4,3.99Z" style="fill:#346b99"></path><path d="M166.612,187.353a4,4,0,0,1-3.955-3.437q-.137-.952-.253-1.91a4,4,0,0,1,7.941-.971q.108.878.232,1.752a4,4,0,0,1-3.4,4.525A4.091,4.091,0,0,1,166.612,187.353Z" style="fill:#346b99"></path><path d="M204.649,96.388c-2.122.953-11.526,2.808-15.3,2.193-10.967,12.154-23.285,30.308-26.8,57.117-.205,1.557-.377,3.138-.512,4.7a4,4,0,0,0,3.642,4.33q.175.015.348.015a4,4,0,0,0,3.981-3.656c.125-1.442.283-2.9.473-4.346C175.252,120.35,199.112,101.036,204.649,96.388Z" style="fill:#346b99"></path><path d="M144.519,135.44a4.056,4.056,0,0,0,.836.089,4,4,0,0,0,3.909-3.168c3.331-15.653,8.671-25.759,15.33-34.513l-9.936.308c-5.777,8.837-10.275,18.7-13.22,32.539A4,4,0,0,0,144.519,135.44Z" style="fill:#346b99"></path></g>
    </symbol>
    <symbol id="ic-food" viewBox="0 0 340 340">
      <g stroke-linecap="round" stroke-linejoin="round"><path d="M50.788,187.878l-36.81,75.1a25.946,25.946,0,0,0,23.3,37.366H110.9a25.947,25.947,0,0,0,23.3-37.366l-36.811-75.1C87.891,168.51,60.282,168.51,50.788,187.878Z" style="fill:#e9ebfc"></path><path d="M129.579,292.4c.224-.234.446-.469.661-.711.114-.128.223-.259.334-.389.227-.266.453-.533.669-.807.082-.105.16-.213.241-.318.234-.308.466-.617.687-.934.043-.061.082-.125.124-.186a25.911,25.911,0,0,0,4.444-17.164h0q-.077-.776-.2-1.554l0-.018q-.124-.772-.3-1.545l-.006-.026q-.175-.771-.4-1.541l-.006-.022q-.228-.774-.507-1.543v0h0a26.638,26.638,0,0,0-1.117-2.66L125.478,245.2H114.587a21.158,21.158,0,0,0-11.444,3.215c-4.457,2.861-9.158,8.227-10.134,18.25v3.9c-.05,1.492-.978,8.375-13.853,8.375H23.383a14.773,14.773,0,0,1-10.956-12,25.95,25.95,0,0,0,24.849,33.406H110.9c.585,0,1.164-.021,1.737-.057.19-.013.375-.037.564-.053.379-.033.759-.064,1.132-.112.224-.029.444-.071.666-.105.331-.052.662-.1.988-.164.235-.046.464-.1.7-.155.305-.069.611-.136.912-.215.238-.062.47-.134.7-.2.287-.085.574-.168.857-.262.238-.079.471-.166.7-.252.27-.1.54-.2.805-.3.236-.1.468-.2.7-.3.255-.112.509-.224.759-.344.233-.112.461-.23.69-.348s.476-.248.71-.379.459-.263.685-.4.44-.268.656-.406.455-.3.679-.451c.2-.14.4-.282.6-.427.226-.165.45-.333.671-.506.184-.144.364-.291.544-.44.224-.185.446-.372.664-.564.163-.145.323-.293.483-.441.223-.208.444-.417.66-.632C129.307,292.687,129.442,292.544,129.579,292.4Z" style="fill:#acb9d4"></path><path d="M301.853,206.188a144.022,144.022,0,0,0-2.839-25.7,387.819,387.819,0,0,0-19.167-63.666,74.977,74.977,0,0,1-4-42.358,68.788,68.788,0,0,1,7.25-19.741,10.008,10.008,0,0,0-.41-10.546l-.148-.216a9.906,9.906,0,0,0-8.171-4.307H236.335a9.906,9.906,0,0,0-8.171,4.307l-.148.216a10.008,10.008,0,0,0-.41,10.546,68.755,68.755,0,0,1,7.249,19.741,74.968,74.968,0,0,1-4,42.358,387.819,387.819,0,0,0-19.167,63.666,144.022,144.022,0,0,0-2.839,25.7l-1.706,81.353a12.543,12.543,0,0,0,12.539,12.805H291.02a12.543,12.543,0,0,0,12.539-12.805Z" style="fill:#fc7d70"></path><path d="M74.086,300.346h15.24v-40.83a8.709,8.709,0,0,0-8.708-8.709H67.555a8.709,8.709,0,0,0-8.709,8.709v40.83Z" style="fill:#667387"></path><path d="M62.18,206.985a4.047,4.047,0,0,1-.782.055,3.818,3.818,0,0,1-.779-.1,3.483,3.483,0,0,1-.743-.246,3.584,3.584,0,0,1-.685-.378,4.022,4.022,0,0,1-1.639-2.586,4.231,4.231,0,0,1-.066-.781,4.65,4.65,0,0,1,.1-.778,4.461,4.461,0,0,1,.246-.743,3.637,3.637,0,0,1,.387-.687,4.236,4.236,0,0,1,.515-.6,3.489,3.489,0,0,1,.618-.473,3.928,3.928,0,0,1,.7-.356,4.012,4.012,0,0,1,3.734.456,3.191,3.191,0,0,1,.6.515,3.774,3.774,0,0,1,.483.616,3.707,3.707,0,0,1,.356.7,3.837,3.837,0,0,1,.268,1.537,4.046,4.046,0,0,1-.344,1.522,3.6,3.6,0,0,1-.388.686,3.554,3.554,0,0,1-.506.586,3.8,3.8,0,0,1-.617.484,4.379,4.379,0,0,1-.7.355A4.135,4.135,0,0,1,62.18,206.985Z" style="fill:#acb9d4"></path><path d="M70.062,221.618a4.065,4.065,0,0,1-.782.055,4.046,4.046,0,0,1-1.522-.344,3.586,3.586,0,0,1-.686-.387,4,4,0,0,1-.971-5.566,4.076,4.076,0,0,1,.514-.6,4.565,4.565,0,0,1,.617-.484,4.63,4.63,0,0,1,.7-.355,4.083,4.083,0,0,1,1.536-.268,4.009,4.009,0,0,1,1.522.343,4.242,4.242,0,0,1,.688.388,4,4,0,0,1,.971,5.566,3.578,3.578,0,0,1-.516.6,3.792,3.792,0,0,1-.616.484,3.834,3.834,0,0,1-.7.355A4.07,4.07,0,0,1,70.062,221.618Z" style="fill:#acb9d4"></path><path d="M53.451,224.506a4.212,4.212,0,0,1-.78.065,4.035,4.035,0,0,1-1.522-.344,3.575,3.575,0,0,1-.687-.388,3.638,3.638,0,0,1-.586-.506,3.849,3.849,0,0,1-.483-.617,4.3,4.3,0,0,1-.355-.7,4.176,4.176,0,0,1-.215-.764,4.023,4.023,0,0,1,.668-2.979,4.15,4.15,0,0,1,.516-.6,4.6,4.6,0,0,1,.615-.483,3.8,3.8,0,0,1,.7-.355,4.1,4.1,0,0,1,1.538-.269,3.889,3.889,0,0,1,.778.1,4.049,4.049,0,0,1,1.43.634,4.9,4.9,0,0,1,.6.505,4.249,4.249,0,0,1,.475.627,4.011,4.011,0,0,1,.353.69,4.088,4.088,0,0,1,.213.755,4.03,4.03,0,0,1-.666,2.989,3.223,3.223,0,0,1-.515.6,3.491,3.491,0,0,1-.616.483,3.894,3.894,0,0,1-.7.356A4.1,4.1,0,0,1,53.451,224.506Z" style="fill:#acb9d4"></path><path d="M100.862,287.519a22.054,22.054,0,0,1,21.386-16.146h57.1s.3.006.808.057a16.139,16.139,0,0,1,14.423,16.105v5.226A7.585,7.585,0,0,1,187,300.346H107.57a7.574,7.574,0,0,1-7.542-8.421A31.1,31.1,0,0,1,100.862,287.519Z" style="fill:#e9ebfc"></path><path d="M122.248,271.373H107.765a7.906,7.906,0,0,1-7.729-9.739c.023-.091.047-.183.071-.274a14.436,14.436,0,0,1,14.01-10.553h65.056a18.129,18.129,0,0,1,10.688,3.336,17.633,17.633,0,0,1,6.226,8.279,6.675,6.675,0,0,1-6.29,8.951Z" style="fill:#ff7b94"></path><path d="M79.156,278.935H58.846v21.411h30.48V276.585C87.279,277.92,84.1,278.935,79.156,278.935Z" style="fill:#373d4c"></path><path d="M150.028,271.373h17.464a78.257,78.257,0,0,0-5.928-20.566H149.791Z" style="fill:#d35363"></path><path d="M188.365,291.75H173.247a5.087,5.087,0,0,1-5.1-5.386,69.926,69.926,0,0,0-.653-14.991H150.028l.234,20.377H139.341l-31.952-.017c-4.115,0-5.617-2.915-6.153-5.4-.131.393-.266.784-.374,1.188a31,31,0,0,0-.828,4.356,7.585,7.585,0,0,0,7.536,8.471H187a7.585,7.585,0,0,0,7.585-7.586v-2.846A15.307,15.307,0,0,1,188.365,291.75Z" style="fill:#acb9d4"></path><path d="M196.4,263.624c-3.33,3.5-9.485,3.191-9.485,3.191h-77.5c-5.961,0-8.17-3.561-8.981-6.488-.119.338-.23.681-.324,1.032-.024.092-.048.184-.071.275a7.906,7.906,0,0,0,7.729,9.739H189.8A6.684,6.684,0,0,0,196.4,263.624Z" style="fill:#d35363"></path><path d="M301.853,206.188a143.976,143.976,0,0,0-2.842-25.713,387.865,387.865,0,0,0-19.23-63.82,74.628,74.628,0,0,1-4.112-41.284,68.918,68.918,0,0,1,7.544-20.853,9.84,9.84,0,0,0-.537-10.359l-.139-.2a9.9,9.9,0,0,0-8.168-4.3h-7.16a10.837,10.837,0,0,1,1.841,14.6H247.562a1.9,1.9,0,0,0-.665,3.67c3.932,1.469,8.42,3.132,12.195,4.493A6.122,6.122,0,0,1,262.97,69.5c-1.465,6.769-2.175,15.662-.943,27.065a114.531,114.531,0,0,0,3.628,18.485,562.609,562.609,0,0,1,16.02,81.165,9.7,9.7,0,0,1-9.64,10.825H243.008a9.556,9.556,0,0,0-9.561,9.469,263.9,263.9,0,0,0,3.071,43.874,19.413,19.413,0,0,1-19.18,22.557s-6.188-.469-9.992-4.965l-.2,9.565a12.543,12.543,0,0,0,12.539,12.805H291.02a12.543,12.543,0,0,0,12.5-11.5,12.771,12.771,0,0,0,.04-1.3Z" style="fill:#e5544c"></path><path d="M136.513,250.807s5.073,17.242,2.232,49.539h22.523s5.275-28.634-3.247-49.539Z" style="fill:#667387"></path><path d="M162.793,275.668c-.107-2.7-.318-5.489-.669-8.3a65.807,65.807,0,0,0-4.1-16.56h-4.048l-2.293.5a2.954,2.954,0,0,0-2.239,3.646c1.456,5.493,4.1,17.754,2.5,29.689-.5,3.7-2.931,6.739-7.156,7-1.713.106-3.451.087-5.446.113q-.207,4.1-.6,8.6h22.523s.623-3.384,1.095-8.674c.129-1.442.246-3.027.337-4.723q.045-.849.081-1.733C162.9,282.27,162.927,279.041,162.793,275.668Z" style="fill:#373d4c"></path><path d="M328.7,224.045a5.488,5.488,0,0,0-5.492-5.446h-70.25a5.488,5.488,0,0,0-5.492,5.446c-.216,41.882,8.389,61.351,14.686,69.977a15.56,15.56,0,0,0,12.587,6.324h26.689a15.56,15.56,0,0,0,12.586-6.324C320.31,285.4,328.916,265.927,328.7,224.045Z" style="fill:#636b77"></path><path d="M323.207,218.6h-7.648c.106.37.211.749.316,1.142a59.821,59.821,0,0,1,1.963,17.1c-.279,10.21-2.053,28.028-10.338,40.8a12.272,12.272,0,0,1-10.3,5.569H256.245a52.585,52.585,0,0,0,5.906,10.812,15.561,15.561,0,0,0,12.587,6.324h26.689a15.56,15.56,0,0,0,12.586-6.324c6.3-8.626,14.9-28.095,14.686-69.977A5.488,5.488,0,0,0,323.207,218.6Z" style="fill:#373d4c"></path></g>
    </symbol>
    <symbol id="ic-sun" viewBox="0 0 16 16">
      <path d="M6 .278a.768.768 0 0 1 .08.858 7.208 7.208 0 0 0-.878 3.46c0 4.021 3.278 7.277 7.318 7.277.527 0 1.04-.055 1.533-.16a.787.787 0 0 1 .81.316.733.733 0 0 1-.031.893A8.349 8.349 0 0 1 8.344 16C3.734 16 0 12.286 0 7.71 0 4.266 2.114 1.312 5.124.06A.752.752 0 0 1 6 .278zM4.858 1.311A7.269 7.269 0 0 0 1.025 7.71c0 4.02 3.279 7.276 7.319 7.276a7.316 7.316 0 0 0 5.205-2.162c-.337.042-.68.063-1.029.063-4.61 0-8.343-3.714-8.343-8.29 0-1.167.242-2.278.681-3.286z"/>
    </symbol>
    <symbol id="ic-moon" viewBox="0 0 16 16">
      <path d="M8 11a3 3 0 1 1 0-6 3 3 0 0 1 0 6zm0 1a4 4 0 1 0 0-8 4 4 0 0 0 0 8zM8 0a.5.5 0 0 1 .5.5v2a.5.5 0 0 1-1 0v-2A.5.5 0 0 1 8 0zm0 13a.5.5 0 0 1 .5.5v2a.5.5 0 0 1-1 0v-2A.5.5 0 0 1 8 13zm8-5a.5.5 0 0 1-.5.5h-2a.5.5 0 0 1 0-1h2a.5.5 0 0 1 .5.5zM3 8a.5.5 0 0 1-.5.5h-2a.5.5 0 0 1 0-1h2A.5.5 0 0 1 3 8zm10.657-5.657a.5.5 0 0 1 0 .707l-1.414 1.415a.5.5 0 1 1-.707-.708l1.414-1.414a.5.5 0 0 1 .707 0zm-9.193 9.193a.5.5 0 0 1 0 .707L3.05 13.657a.5.5 0 0 1-.707-.707l1.414-1.414a.5.5 0 0 1 .707 0zm9.193 2.121a.5.5 0 0 1-.707 0l-1.414-1.414a.5.5 0 0 1 .707-.707l1.414 1.414a.5.5 0 0 1 0 .707zM4.464 4.465a.5.5 0 0 1-.707 0L2.343 3.05a.5.5 0 1 1 .707-.707l1.414 1.414a.5.5 0 0 1 0 .708z"/>
      </svg>
    </symbol>
</svg>