<svg xmlns="http://www.w3.org/2000/svg" style="display:none">
    <symbol id="ic-menu" viewBox="0 0 16 16">
      <g fill="currentColor"><path d="M15,7H1C0.4,7,0,7.4,0,8s0.4,1,1,1h14c0.6,0,1-0.4,1-1S15.6,7,15,7z"></path><path d="M15,1H1C0.4,1,0,1.4,0,2s0.4,1,1,1h14c0.6,0,1-0.4,1-1S15.6,1,15,1z"></path><path d="M15,13H1c-0.6,0-1,0.4-1,1s0.4,1,1,1h14c0.6,0,1-0.4,1-1S15.6,13,15,13z"></path></g>
    </symbol>
    <symbol id="ic-close" viewBox="0 0 16 16">
      <g fill="currentColor"><path d="M14.7,1.3c-0.4-0.4-1-0.4-1.4,0L8,6.6L2.7,1.3c-0.4-0.4-1-0.4-1.4,0s-0.4,1,0,1.4L6.6,8l-5.3,5.3 c-0.4,0.4-0.4,1,0,1.4C1.5,14.9,1.7,15,2,15s0.5-0.1,0.7-0.3L8,9.4l5.3,5.3c0.2,0.2,0.5,0.3,0.7,0.3s0.5-0.1,0.7-0.3 c0.4-0.4,0.4-1,0-1.4L9.4,8l5.3-5.3C15.1,2.3,15.1,1.7,14.7,1.3z"></path></g>
    </symbol>
    <symbol id="ic-twitch" viewBox="0 0 16 16">
      <g fill="currentColor"><path d="M1.433,0,.358,2.746V14H4v2H6.328l2.03-2h3.1l4.179-4.209V0ZM14.209,9.075l-2.388,2.388H8l-2,2.03v-2.03H2.746V1.433H14.209Z"></path> <rect x="10.388" y="4.179" width="1.433" height="4.175"></rect> <rect x="6.567" y="4.179" width="1.433" height="4.175"></rect></g>
    </symbol>
    <symbol id="ic-discord" viewBox="0 0 640 512">
      <g fill="currentColor"><path d="M524.531 69.836a1.5 1.5 0 0 0-.764-.7A485.065 485.065 0 0 0 404.081 32.03a1.816 1.816 0 0 0-1.923.91 337.461 337.461 0 0 0-14.9 30.6 447.848 447.848 0 0 0-134.426 0 309.541 309.541 0 0 0-15.135-30.6 1.89 1.89 0 0 0-1.924-.91 483.689 483.689 0 0 0-119.688 37.107 1.712 1.712 0 0 0-.788.676C39.068 183.651 18.186 294.69 28.43 404.354a2.016 2.016 0 0 0 .765 1.375 487.666 487.666 0 0 0 146.825 74.189 1.9 1.9 0 0 0 2.063-.676A348.2 348.2 0 0 0 208.12 430.4a1.86 1.86 0 0 0-1.019-2.588 321.173 321.173 0 0 1-45.868-21.853 1.885 1.885 0 0 1-.185-3.126 251.047 251.047 0 0 0 9.109-7.137 1.819 1.819 0 0 1 1.9-.256c96.229 43.917 200.41 43.917 295.5 0a1.812 1.812 0 0 1 1.924.233 234.533 234.533 0 0 0 9.132 7.16 1.884 1.884 0 0 1-.162 3.126 301.407 301.407 0 0 1-45.89 21.83 1.875 1.875 0 0 0-1 2.611 391.055 391.055 0 0 0 30.014 48.815 1.864 1.864 0 0 0 2.063.7A486.048 486.048 0 0 0 610.7 405.729a1.882 1.882 0 0 0 .765-1.352c12.264-126.783-20.532-236.912-86.934-334.541zM222.491 337.58c-28.972 0-52.844-26.587-52.844-59.239s23.409-59.241 52.844-59.241c29.665 0 53.306 26.82 52.843 59.239 0 32.654-23.41 59.241-52.843 59.241zm195.38 0c-28.971 0-52.843-26.587-52.843-59.239s23.409-59.241 52.843-59.241c29.667 0 53.307 26.82 52.844 59.239 0 32.654-23.177 59.241-52.844 59.241z"></path></g>
    </symbol>
    <symbol id="ic-instagram" viewBox="0 0 448 512">
      <g fill="currentColor"><path d="M224.1 141c-63.6 0-114.9 51.3-114.9 114.9s51.3 114.9 114.9 114.9S339 319.5 339 255.9 287.7 141 224.1 141zm0 189.6c-41.1 0-74.7-33.5-74.7-74.7s33.5-74.7 74.7-74.7 74.7 33.5 74.7 74.7-33.6 74.7-74.7 74.7zm146.4-194.3c0 14.9-12 26.8-26.8 26.8-14.9 0-26.8-12-26.8-26.8s12-26.8 26.8-26.8 26.8 12 26.8 26.8zm76.1 27.2c-1.7-35.9-9.9-67.7-36.2-93.9-26.2-26.2-58-34.4-93.9-36.2-37-2.1-147.9-2.1-184.9 0-35.8 1.7-67.6 9.9-93.9 36.1s-34.4 58-36.2 93.9c-2.1 37-2.1 147.9 0 184.9 1.7 35.9 9.9 67.7 36.2 93.9s58 34.4 93.9 36.2c37 2.1 147.9 2.1 184.9 0 35.9-1.7 67.7-9.9 93.9-36.2 26.2-26.2 34.4-58 36.2-93.9 2.1-37 2.1-147.8 0-184.8zM398.8 388c-7.8 19.6-22.9 34.7-42.6 42.6-29.5 11.7-99.5 9-132.1 9s-102.7 2.6-132.1-9c-19.6-7.8-34.7-22.9-42.6-42.6-11.7-29.5-9-99.5-9-132.1s-2.6-102.7 9-132.1c7.8-19.6 22.9-34.7 42.6-42.6 29.5-11.7 99.5-9 132.1-9s102.7-2.6 132.1 9c19.6 7.8 34.7 22.9 42.6 42.6 11.7 29.5 9 99.5 9 132.1s2.7 102.7-9 132.1z"></path></g>
    </symbol>
    <symbol id="ic-youtube" viewBox="0 0 576 512">
      <g fill="currentColor"><path d="M549.655 124.083c-6.281-23.65-24.787-42.276-48.284-48.597C458.781 64 288 64 288 64S117.22 64 74.629 75.486c-23.497 6.322-42.003 24.947-48.284 48.597-11.412 42.867-11.412 132.305-11.412 132.305s0 89.438 11.412 132.305c6.281 23.65 24.787 41.5 48.284 47.821C117.22 448 288 448 288 448s170.78 0 213.371-11.486c23.497-6.321 42.003-24.171 48.284-47.821 11.412-42.867 11.412-132.305 11.412-132.305s0-89.438-11.412-132.305zm-317.51 213.508V175.185l142.739 81.205-142.739 81.201z"></path></g>
    </symbol>
    <symbol id="ic-twitter" viewBox="0 0 16 16">
      <g fill="currentColor"><path d="M16,3c-0.6,0.3-1.2,0.4-1.9,0.5c0.7-0.4,1.2-1,1.4-1.8c-0.6,0.4-1.3,0.6-2.1,0.8c-0.6-0.6-1.5-1-2.4-1 C9.3,1.5,7.8,3,7.8,4.8c0,0.3,0,0.5,0.1,0.7C5.2,5.4,2.7,4.1,1.1,2.1c-0.3,0.5-0.4,1-0.4,1.7c0,1.1,0.6,2.1,1.5,2.7 c-0.5,0-1-0.2-1.5-0.4c0,0,0,0,0,0c0,1.6,1.1,2.9,2.6,3.2C3,9.4,2.7,9.4,2.4,9.4c-0.2,0-0.4,0-0.6-0.1c0.4,1.3,1.6,2.3,3.1,2.3 c-1.1,0.9-2.5,1.4-4.1,1.4c-0.3,0-0.5,0-0.8,0c1.5,0.9,3.2,1.5,5,1.5c6,0,9.3-5,9.3-9.3c0-0.1,0-0.3,0-0.4C15,4.3,15.6,3.7,16,3z"></path></g>
    </symbol>
    <symbol id="ic-tiktok" viewBox="0 0 16 16">
      <g fill="currentColor"><path d="M6.793,5.958V8.706a2.392,2.392,0,0,0-3,2.216,2.163,2.163,0,0,0,2.312,2.3,2.155,2.155,0,0,0,2.311-2.326V0h2.719c.463,2.876,1.9,3.544,3.827,3.852V6.608a8.19,8.19,0,0,1-3.75-1.266v5.445C11.21,13.25,9.75,16,6.125,16A5.11,5.11,0,0,1,1.04,10.761,5.01,5.01,0,0,1,6.793,5.958Z"></path></g>
    </symbol>
    <symbol id="ic-facebook" viewBox="0 0 16 16">
      <g fill="currentColor"><path d="M16,8.048a8,8,0,1,0-9.25,7.9V10.36H4.719V8.048H6.75V6.285A2.822,2.822,0,0,1,9.771,3.173a12.2,12.2,0,0,1,1.791.156V5.3H10.554a1.155,1.155,0,0,0-1.3,1.25v1.5h2.219l-.355,2.312H9.25v5.591A8,8,0,0,0,16,8.048Z"></path></g>
    </symbol>
    <symbol id="ic-arrowl" viewBox="0 0 16 16">
      <g fill="currentColor"><polygon points="6.7,14.7 8.1,13.3 3.8,9 16,9 16,7 3.8,7 8.1,2.7 6.7,1.3 0,8 "></polygon></g>
    </symbol>
    <symbol id="ic-arrowr" viewBox="0 0 16 16">
      <g fill="currentColor"><polygon points="9.3,1.3 7.9,2.7 12.2,7 0,7 0,9 12.2,9 7.9,13.3 9.3,14.7 16,8 "></polygon></g>
    </symbol>
    <symbol id="ic-plus" viewBox="0 0 16 16">
      <g fill="currentColor"><path d="M15,7H9V1c0-0.6-0.4-1-1-1S7,0.4,7,1v6H1C0.4,7,0,7.4,0,8s0.4,1,1,1h6v6c0,0.6,0.4,1,1,1s1-0.4,1-1V9h6 c0.6,0,1-0.4,1-1S15.6,7,15,7z"></path></g>
    </symbol>
    <symbol id="ic-quotes" viewBox="0 0 32 32">
      <path d="M9.563 8.469l-0.813-1.25c-5.625 3.781-8.75 8.375-8.75 12.156 0 3.656 2.688 5.375 4.969 5.375 2.875 0 4.906-2.438 4.906-5 0-2.156-1.375-4-3.219-4.688-0.531-0.188-1.031-0.344-1.031-1.25 0-1.156 0.844-2.875 3.938-5.344zM21.969 8.469l-0.813-1.25c-5.563 3.781-8.75 8.375-8.75 12.156 0 3.656 2.75 5.375 5.031 5.375 2.906 0 4.969-2.438 4.969-5 0-2.156-1.406-4-3.313-4.688-0.531-0.188-1-0.344-1-1.25 0-1.156 0.875-2.875 3.875-5.344z"/>
    </symbol>
    <symbol id="ic-down" viewBox="0 0 16 16">
      <g fill="currentColor"><polygon points="8,11.4 2.6,6 4,4.6 8,8.6 12,4.6 13.4,6 "></polygon></g>
    </symbol>
    <symbol id="ic-mtfuji" viewBox="0 0 340 340">
      <circle cx="215.331" cy="97.719" r="68.193" style="fill:#f74f73"/><path d="M88.025,154.094l17.207-5.417,109.937,7.01,12.746,9.241s34.415,29,59.27,40.47v30.743H25.568l-3.061-22.266S66.811,175.731,88.025,154.094Z" style="fill:#4673aa"/><path d="M287.185,222.82V205.4c-24.855-11.472-59.27-40.47-59.27-40.47l-12.746-9.241-9.732-.62C226.517,177.428,255.091,203.81,287.185,222.82Z" style="fill:#aeb7d8"/><rect height="74.332" style="fill:#b5d4f4" width="320" x="10" y="236.141"/><path d="M55.3,221.07c16.385-10.179,27.576-.936,31.2,2.666a38.622,38.622,0,0,0,5.476,4.034c4.909,3.326,15.927,5.9,15.927,5.9a76.12,76.12,0,0,0,10.449,2.473H10s4.057-15.965,15.57-24.987q.552-.432,1.123-.826s13.386-4.1,19.886.08A25.268,25.268,0,0,1,55.3,221.07Z" style="fill:#698779"/><path d="M330,236.141a33.185,33.185,0,0,0-5.035-13.083s-9.126-11-22.413-11.692c0,0-4.823-13.368-18.01-13.385a17.529,17.529,0,0,0-6.594,1.378,17.992,17.992,0,0,0-10.136,9.35s-16.99-8.572-26.868,8.857c0,0-8.656-5.632-17.42,2.362a34.043,34.043,0,0,0-2.755,2.892,55.05,55.05,0,0,1-8.326,7.14c-4.4,3.248-10.173,6.181-16.712,6.181Z" style="fill:#698779"/><path d="M138.569,104.7h28.394A10.675,10.675,0,0,1,175,108.35c8.281,9.476,31.42,35.6,52.914,56.578a32.873,32.873,0,0,0-27.3,2.746,19.143,19.143,0,0,1-13.075,2.153,24.013,24.013,0,0,1-7.091-2.509,17.65,17.65,0,0,0-14.55-1.006,26.207,26.207,0,0,0-6.314,3.334,25.225,25.225,0,0,1-16.6,4.864,24.747,24.747,0,0,1-12.705-4.731,18.983,18.983,0,0,0-7.912-3.233,35.374,35.374,0,0,0-20.964,2.843s.638-15.3-13.383-15.3c0,0,25.809-24.407,42.156-45.318A10.636,10.636,0,0,1,138.569,104.7Z" style="fill:#c4dfe8"/><path d="M227.915,164.928c-21.494-20.982-44.633-47.1-52.914-56.578a10.675,10.675,0,0,0-8.038-3.648H138.569a10.834,10.834,0,0,0-1.34.09l26.852,5.433a11.416,11.416,0,0,1,6.843,4.3,516.849,516.849,0,0,0,42.542,48.87A31.358,31.358,0,0,1,227.915,164.928Z" style="fill:#fffaff"/><path d="M59.575,72.365c1.588,2.52,2.49,6.686,3.059,10.511,0,0,9.921-1.094,19.935,9.319,3.737,3.885,9.818,6.159,14.974,7.73q.563.171,1.151.33a.462.462,0,0,1-.112.911H12.411a2.28,2.28,0,0,1-2.272-2.515c.6-5.777,3.751-19.674,20.168-21.9,0,0,.05-.253.169-.7a16.419,16.419,0,0,1,9.431-11S52.93,61.817,59.575,72.365Z" style="fill:#71aacc"/><path d="M239.565,119.952h87.692a1.075,1.075,0,0,0,.493-2.032,75.838,75.838,0,0,1-14.109-9.045s-7.185-13.82-19.46-10.652a22.815,22.815,0,0,0-1.508-5.524,16.66,16.66,0,0,0-3.507-5.428S276.239,78.7,263,94.844c-.076.093-10.093,1.2-11.917,10.676-.7,3.627-3.559,6.7-6.29,9.182a20.872,20.872,0,0,1-5.581,3.628A.85.85,0,0,0,239.565,119.952Z" style="fill:#71aacc"/><path d="M245.292,263.691H131.35a4,4,0,0,1,0-8H245.292a4,4,0,1,1,0,8Z" style="fill:#6c9bd3"/><path d="M106.062,263.691h-2.084a4,4,0,0,1,0-8h2.084a4,4,0,1,1,0,8Z" style="fill:#6c9bd3"/><path d="M76.607,255.691H10v8H76.607a4,4,0,1,0,0-8Z" style="fill:#6c9bd3"/><path d="M101.408,169.389l16.722-20.222a1.754,1.754,0,0,1,3.008,1.694l-8.26,23.718Z" style="fill:#4673aa"/><path d="M199.218,168.4l-12.661-23.548a1.266,1.266,0,0,1,2.042-1.462l25.781,27.709Z" style="fill:#4673aa"/><path d="M159.586,169.646l-2.952,22.711a1.633,1.633,0,0,1-3.225.086l-4.21-22.8Z" style="fill:#c4dfe8"/><path d="M269.286,263.325,252.8,276.6a34.522,34.522,0,0,1-21.654,7.635H10v26.24H330V255.691H290.94A34.531,34.531,0,0,0,269.286,263.325Z" style="fill:#6c9bd3"/><path d="M278.269,284.233H182.123a4,4,0,0,1,0-8h96.146a4,4,0,0,1,0,8Z" style="fill:#b5d4f4"/><path d="M301.84,284.233h-2.778a4,4,0,0,1,0-8h2.778a4,4,0,0,1,0,8Z" style="fill:#b5d4f4"/><path d="M98.694,100.254q-.588-.158-1.151-.329a31.661,31.661,0,0,1-13.5-8.454c-10.015-10.413-19.549-9.583-19.549-9.583a29.255,29.255,0,0,0-3.087-9.62c-4.486-8.351-14.057-10.44-21.5-7.208.115-.013,17.382-1.906,19.241,22.892,0,0,10.8-2.091,18.033,5.546A29.35,29.35,0,0,0,84.3,99.153c1.228.675,2.621,1.373,4.122,2.013H98.582A.463.463,0,0,0,98.694,100.254Z" style="fill:#dfe4f9"/><path d="M256.038,111.649c1.467-14.247,13.619-15.5,13.619-15.5,5.573-14.242,19.1-9.025,19.5-8.868-8.144-8.351-23.749-5.916-27.8,6.581-.038.115-.074.23-.11.347,0,0-9.56,1.509-11.384,10.985a17.061,17.061,0,0,1-5.078,9.512,20.849,20.849,0,0,1-5.58,3.628.85.85,0,0,0,.359,1.622h11.119A11.292,11.292,0,0,0,256.038,111.649Z" style="fill:#dfe4f9"/><path d="M303.437,210.815s-5.457-13.643-18.644-13.66a18.393,18.393,0,0,0-6.772,1.335c-3.323,1.316-8.2,4.08-10.593,9.457,0,0-17.207-8.728-27.085,8.7,0,0-8.817-4.786-17.584,3.219a23.087,23.087,0,0,0-2.22,2.406,47.035,47.035,0,0,1-8.1,7.685c4.064-1.341,8.678-3.484,12.049-6.855a10.921,10.921,0,0,1,5.9-3.017,18.146,18.146,0,0,1,13.19,2.734s10.074-17.639,31.419-6.172c0,0,.231-9.366,9.081-11.244s15.509,12.124,15.509,12.124,14.486-3.188,25.373,5.53C321.181,217.336,314.644,211.711,303.437,210.815Z" style="fill:#b0d1ba"/><path d="M92.432,226.591a34.051,34.051,0,0,1-4.858-4.121c-3.619-3.6-15.621-13.285-32.006-3.106a21.732,21.732,0,0,0-8.065-9.883c-6.5-4.18-14.457-3.523-20.807.851,6.828-1.221,20.206-1.02,26.2,17.035,0,0,13.72-11.681,27.516-1.495a40.379,40.379,0,0,0,12.359,6.433,35.5,35.5,0,0,0,15.124,1.361A59.131,59.131,0,0,1,92.432,226.591Z" style="fill:#b0d1ba"/>
    </symbol>
    <symbol id="ic-sakura" viewBox="0 0 340 340">
      <path d="M138.058,249.571s19.225-4.621,31.154,11.145c0,0-.666-21.869,22.1-28.214,0,0,8.434,18.617-2.292,32.373,0,0,17.422-4.548,27.673,8.8,0,0-6.578,15.843-28.414,11.767,0,0,10.275,19.479,1.177,34.393,0,0-14.667-5.4-21.271-23.415,0,0-8.454,14.114-25.015,12.08,0,0-5.694-22.3,15.618-31.068C158.788,277.436,135.445,274.057,138.058,249.571Z" style="fill:#ffdef0"/><path d="M10.322,103.3V60.075s41.228-2.58,71,31.08c6.347,7.175,15.44,21.743,19.325,30.5,10.453,23.561,60.056,120.838,169.1,114.215,0,0,32.4-3.334,49.978-19.853a5.909,5.909,0,0,1,9.546,2.174h0a5.9,5.9,0,0,1-.567,5.4c-7.208,10.9-40.162,49.787-130.985,24.359,0,0-27.183-6.189-57.991-31.464l-22.717-14.318c-5.923-10.881-14.483-24.955-22.978-39.039-8.864-14.7-19.694-30.739-33.283-41.221C47.69,111.83,30.222,105.465,10.322,103.3Z" style="fill:#473b37"/><path d="M52.422,36.161c-.3,9.549,1.4,24.953,13.7,34.374,0,0-14.454-.912-26.444,16.8a7.8,7.8,0,0,0,2.916,11.24c8.78,4.6,24.936,10,42.7.8a42.983,42.983,0,0,0,18.63,37.152,7.793,7.793,0,0,0,10.8-1.892c5.283-7.517,11.708-22.185.267-40.448,0,0,18.885,7.416,35.425-2.767a7.773,7.773,0,0,0,1.506-11.972c-6.011-6.24-17.73-14.473-37.331-13.719a44.1,44.1,0,0,0,12.076-39.065,7.823,7.823,0,0,0-10.037-6.133c-8.855,2.829-22.389,10.382-26.072,30.378,0,0-9.947-17.181-28.271-22A7.824,7.824,0,0,0,52.422,36.161Z" style="fill:#ffdef0"/><path d="M71.382,159.772s24.156,2.761,29.333,28.3c0,0-3.106-25.183,35.89-29.846,0,0,6.557,26.74-19.671,42.27,0,0,23.21-5.522,37.142,17.6,0,0-10.569,14.494-36.8,7.247,0,0,4.487,20.361-10.007,33.474,0,0-22.087-4.486-16.565-36.925,0,0-23.122,13.114-42.447-5.867,0,0,7.247-19.67,36.235-16.91C84.5,199.113,60.684,191.176,71.382,159.772Z" style="fill:#ffabd1"/><path d="M226.64,249.585s18.608-9.522,34.781,3.717c0,0-6.114-22.306,15.7-34.48,0,0,13.289,17.037,5.683,33.835,0,0,16.773-9,30.622,2.176,0,0-2.825,17.913-26.276,19.147,0,0,15.395,17.464,9.749,35.049,0,0-16.413-1.907-27.671-18.78,0,0-5.758,17.944-24.792,18.78,0,0-10.3-20.992,9.426-35.3C253.866,273.734,230.035,275.4,226.64,249.585Z" style="fill:#ffdef0"/><path d="M171.464,170.806s23.611-4.667,37.337,15.1c0,0,.275-26.631,28.278-33.219,0,0,9.334,23.061-4.393,39.258,0,0,21.414-4.667,33.219,12.08,0,0-8.785,18.943-35.141,12.9,0,0,11.531,24.2-.274,41.887,0,0-17.571-7.295-24.709-29.532,0,0-10.981,16.746-31.022,13.452,0,0-6.414-26.739,19.942-36.348C194.7,206.387,167.072,200.456,171.464,170.806Z" style="fill:#ffabd1"/><path d="M55.088,268.676S50.24,302.613,81.06,305.037C81.06,305.037,87.639,278.719,55.088,268.676Z" style="fill:#ffabd1"/><path d="M198.8,95.88s12.813,34.974,55.752,9C254.549,104.883,240.351,73.371,198.8,95.88Z" style="fill:#ffabd1"/><path d="M305.107,162.279S291.948,173.1,293.679,187.3c0,0,1.732,12.813,13.852,16.622C307.531,203.921,326.23,182.623,305.107,162.279Z" style="fill:#ffd2e9"/><path d="M25.281,192a3.983,3.983,0,0,1-2.82-1.17,3.3,3.3,0,0,1-.5-.61,3.6,3.6,0,0,1-.37-.69,3.88,3.88,0,0,1-.229-.74,4.236,4.236,0,0,1-.081-.79,4,4,0,0,1,4.781-3.92,3.768,3.768,0,0,1,.75.231,3.483,3.483,0,0,1,.689.369,3.289,3.289,0,0,1,.611.5A4,4,0,0,1,25.281,192Z" style="fill:#ffabd1"/><path d="M156.041,42.31a4,4,0,0,1-4-4,4.215,4.215,0,0,1,.08-.781,4,4,0,0,1,.231-.75,4.565,4.565,0,0,1,.359-.69,4.925,4.925,0,0,1,.5-.609,4.008,4.008,0,0,1,5.66,0,4.1,4.1,0,0,1,.491.609,3.994,3.994,0,0,1,.37.69,4.045,4.045,0,0,1,.309,1.531,4.045,4.045,0,0,1-.08.779,3.9,3.9,0,0,1-.229.75,3.628,3.628,0,0,1-.37.69,3.7,3.7,0,0,1-.491.61A4.066,4.066,0,0,1,156.041,42.31Z" style="fill:#ffdef0"/><path d="M278.221,95.9a3.43,3.43,0,0,1-.779-.08,3.885,3.885,0,0,1-.75-.23A4.572,4.572,0,0,1,276,95.23a5.106,5.106,0,0,1-.61-.5,3.631,3.631,0,0,1-.489-.611,3.771,3.771,0,0,1-.371-.69,3.859,3.859,0,0,1-.23-.75,4.129,4.129,0,0,1-.08-.78,4.069,4.069,0,0,1,1.17-2.83,4.919,4.919,0,0,1,.61-.5,4.577,4.577,0,0,1,.691-.36,3.952,3.952,0,0,1,.75-.229,4.033,4.033,0,0,1,3.609,1.089,4.746,4.746,0,0,1,.5.61,4.406,4.406,0,0,1,.37.69,3.742,3.742,0,0,1,.22.75,3.843,3.843,0,0,1,0,1.56,3.7,3.7,0,0,1-.22.75,4.406,4.406,0,0,1-.37.69,4.209,4.209,0,0,1-.5.611A4.066,4.066,0,0,1,278.221,95.9Z" style="fill:#ffdef0"/><path d="M222.131,313.029a4.119,4.119,0,0,1-.779-.08,3.791,3.791,0,0,1-.75-.23,3.836,3.836,0,0,1-.691-.37,4.145,4.145,0,0,1-.61-.49,4.024,4.024,0,0,1-.489-.61,3.707,3.707,0,0,1-.37-.69,3.768,3.768,0,0,1-.231-.75,3.843,3.843,0,0,1,0-1.56,3.768,3.768,0,0,1,.231-.75,3.707,3.707,0,0,1,.37-.69,4.024,4.024,0,0,1,.489-.61,5.089,5.089,0,0,1,.61-.5,4.625,4.625,0,0,1,.691-.36,3.791,3.791,0,0,1,.75-.23,4.011,4.011,0,0,1,3.609,1.09,4.831,4.831,0,0,1,.5.61,4.406,4.406,0,0,1,.37.69,3.809,3.809,0,0,1,.22.75,3.394,3.394,0,0,1,.08.78,3.995,3.995,0,0,1-4,4Z" style="fill:#ffabd1"/><path d="M107.535,73.571c-3.721-.938-6.728-1.527-9.116-1.9a48.35,48.35,0,0,1,4-4.471,4,4,0,1,0-5.631-5.683,54.6,54.6,0,0,0-6.09,7.124L84.952,62.9A4,4,0,1,0,79.3,68.555L84.94,74.2l-7.6,4.42a4,4,0,1,0,4.022,6.916l7.529-4.378c.652,2.464,1.561,5.834,2.779,10.208a4,4,0,1,0,7.707-2.144c-1.138-4.09-2.009-7.312-2.647-9.717,2.187.328,5.108.882,8.851,1.826a4.056,4.056,0,0,0,.982.122,4,4,0,0,0,.975-7.88Z" style="fill:#f982aa"/><path d="M112.745,204.063a49.28,49.28,0,0,1-6.155-.84,16.523,16.523,0,0,1,2.582-3.378,4,4,0,1,0-5.658-5.656,24.445,24.445,0,0,0-2.955,3.582,32.842,32.842,0,0,0-2.338-2.422,4,4,0,1,0-5.4,5.9c.015.014.78.726,1.723,1.8a33.536,33.536,0,0,0-4.836,1.866,4,4,0,1,0,3.469,7.209,25.744,25.744,0,0,1,4.272-1.587,43.437,43.437,0,0,1-.254,5.487,4,4,0,0,0,7.947.917,50.466,50.466,0,0,0,.311-5.78,59.128,59.128,0,0,0,6.663.876c.107.009.213.013.319.013a4,4,0,0,0,.31-7.987Z" style="fill:#f45885"/><path d="M183.068,271.432l-3.433-.31.652-2.21a4,4,0,1,0-7.672-2.265l-.582,1.971-2.659-1.568a4,4,0,0,0-4.064,6.891l2.683,1.582-2.286,2.341a4,4,0,1,0,5.725,5.588l.7-.715.508,2.258a4,4,0,1,0,7.805-1.754l-.921-4.1,2.827.255c.122.011.244.016.364.016a4,4,0,0,0,.355-7.983Z" style="fill:#f982aa"/><path d="M225.318,200.838l-5.619-.46,2.478-6.182a4,4,0,0,0-7.426-2.976l-2.626,6.551a42.673,42.673,0,0,0-6.159-3.193,4,4,0,0,0-2.93,7.444,35.943,35.943,0,0,1,4.767,2.486l-6.162,6.3a4,4,0,1,0,5.721,5.591l4.455-4.558a36.728,36.728,0,0,1,.876,6.945,4,4,0,0,0,3.968,4.031h.033a4,4,0,0,0,4-3.968,50.156,50.156,0,0,0-1.444-10.487l5.414.444c.112.009.222.013.332.013a4,4,0,0,0,.323-7.986Z" style="fill:#f45885"/><path d="M284.548,262.879a4,4,0,0,0-4.907-2.813l-5.606,1.52v-3.875a4,4,0,0,0-8,0v3.843l-5.339-1.483a4,4,0,0,0-2.139,7.709l5.363,1.489-2.89,4.855a4,4,0,1,0,6.875,4.092l2.053-3.451,1.927,3.384a4,4,0,1,0,6.953-3.958l-2.771-4.868,5.668-1.537A4,4,0,0,0,284.548,262.879Z" style="fill:#f982aa"/>
    </symbol>
    <symbol id="ic-temple" viewBox="0 0 340 340">
      <rect height="247.443" style="fill:#f74f73" width="32.578" x="64.786" y="65.348"/><path d="M99.926,312.791h-37.7a9.151,9.151,0,0,0-9.151,9.151V330h56v-8.058A9.151,9.151,0,0,0,99.926,312.791Z" style="fill:#373d4c"/><rect height="247.443" style="fill:#f74f73" transform="translate(517.851 378.139) rotate(180)" width="32.578" x="242.637" y="65.348"/><path d="M240.074,312.791h37.7a9.151,9.151,0,0,1,9.151,9.151V330h-56v-8.058A9.151,9.151,0,0,1,240.074,312.791Z" style="fill:#373d4c"/><rect height="64.48" style="fill:#c12140" width="32.578" x="64.786" y="123.242"/><rect height="64.48" style="fill:#c12140" width="32.578" x="242.637" y="123.242"/><path d="M171.582,201.317a4,4,0,0,1-4-4v-34.6a4,4,0,1,1,8,0v34.6A4,4,0,0,1,171.582,201.317Z" style="fill:#e2b088"/><path d="M216.759,201.611a4,4,0,0,1-4-4v-34.6a4,4,0,0,1,8,0v34.6A4,4,0,0,1,216.759,201.611Z" style="fill:#e2b088"/><path d="M123.911,201.611a4,4,0,0,1-4-4v-34.6a4,4,0,0,1,8,0v34.6A4,4,0,0,1,123.911,201.611Z" style="fill:#e2b088"/><path d="M172.869,190.872l6.55,6.006a1.811,1.811,0,0,1,.025,2.646l-3.177,3.025a1.81,1.81,0,0,0,0,2.621l6.069,5.8a1.81,1.81,0,0,1,.146,2.461l-4.779,5.8a1.811,1.811,0,0,0,.211,2.519l5.468,4.747a1.811,1.811,0,0,1,.138,2.6l-12.086,12.992a1.811,1.811,0,0,1-2.595.057l-5.264-5.178a1.811,1.811,0,0,1-.094-2.481l4.648-5.33a1.811,1.811,0,0,0-.048-2.433l-5.317-5.632a1.811,1.811,0,0,1-.01-2.475l4.36-4.7a1.81,1.81,0,0,0-.076-2.54l-7.336-7.014a1.81,1.81,0,0,1-.038-2.58l10.694-10.848A1.81,1.81,0,0,1,172.869,190.872Z" style="fill:#e4e6f4"/><path d="M218.046,191.166l6.55,6.007a1.811,1.811,0,0,1,.025,2.646l-3.177,3.024a1.81,1.81,0,0,0,0,2.621l6.069,5.8a1.81,1.81,0,0,1,.146,2.461l-4.779,5.8a1.811,1.811,0,0,0,.211,2.519l5.468,4.747a1.811,1.811,0,0,1,.138,2.6l-12.086,12.992a1.809,1.809,0,0,1-2.595.057l-5.264-5.178a1.811,1.811,0,0,1-.094-2.481l4.648-5.33a1.811,1.811,0,0,0-.048-2.433l-5.317-5.632a1.811,1.811,0,0,1-.01-2.475l4.36-4.7a1.81,1.81,0,0,0-.076-2.54l-7.336-7.014a1.81,1.81,0,0,1-.038-2.58l10.694-10.847A1.811,1.811,0,0,1,218.046,191.166Z" style="fill:#e4e6f4"/><path d="M125.2,191.166l6.55,6.007a1.811,1.811,0,0,1,.025,2.646l-3.178,3.024a1.812,1.812,0,0,0,0,2.621l6.07,5.8a1.812,1.812,0,0,1,.146,2.461l-4.779,5.8a1.811,1.811,0,0,0,.21,2.519l5.468,4.747a1.811,1.811,0,0,1,.139,2.6l-12.086,12.992a1.81,1.81,0,0,1-2.6.057L115.9,237.26a1.811,1.811,0,0,1-.095-2.481l4.648-5.33a1.81,1.81,0,0,0-.048-2.433l-5.316-5.632a1.811,1.811,0,0,1-.01-2.475l4.359-4.7a1.81,1.81,0,0,0-.076-2.54l-7.336-7.014a1.812,1.812,0,0,1-.038-2.58l10.694-10.847A1.812,1.812,0,0,1,125.2,191.166Z" style="fill:#e4e6f4"/><path d="M10,10s5,8.861,6.1,16.182c.011.073.023.146.034.218A16.824,16.824,0,0,0,32.815,40.457h274.37A16.824,16.824,0,0,0,323.864,26.4c.011-.072.023-.145.034-.218C325,18.861,330,10,330,10Z" style="fill:#373d4c"/><path d="M39.242,40.457s4.09,7.242,4.987,13.224c.009.06.019.12.028.179A13.749,13.749,0,0,0,57.888,65.348H282.112A13.749,13.749,0,0,0,295.743,53.86c.009-.059.019-.119.028-.179.9-5.982,4.987-13.224,4.987-13.224Z" style="fill:#f74f73"/><rect height="43.697" style="fill:#373d4c" width="36.565" x="151.718" y="65.348"/><path d="M277.742,153.6H62.258a9.408,9.408,0,0,0,0,18.816H277.742a9.408,9.408,0,0,0,0-18.816Z" style="fill:#f4dcc6"/><path d="M73.677,172.415h9.477c-4.411-5.278-5.927-13.9-6.442-18.816H68.668C69.08,158.041,70.269,165.776,73.677,172.415Z" style="fill:#e2b088"/><path d="M101.679,172.415h9.477c-4.411-5.278-5.926-13.906-6.442-18.816H96.67C97.083,158.041,98.272,165.776,101.679,172.415Z" style="fill:#e2b088"/><path d="M130.141,172.415h9.477c-4.411-5.278-5.927-13.906-6.442-18.816h-8.044C125.544,158.041,126.733,165.776,130.141,172.415Z" style="fill:#e2b088"/><path d="M158.143,172.415h9.477c-4.412-5.278-5.927-13.906-6.443-18.816h-8.043C153.546,158.041,154.735,165.776,158.143,172.415Z" style="fill:#e2b088"/><path d="M188.164,172.415h9.478c-4.412-5.278-5.927-13.906-6.443-18.816h-8.044C183.568,158.041,184.757,165.776,188.164,172.415Z" style="fill:#e2b088"/><path d="M216.167,172.415h9.477c-4.412-5.278-5.927-13.9-6.443-18.816h-8.044C211.569,158.041,212.759,165.776,216.167,172.415Z" style="fill:#e2b088"/><path d="M241.84,172.415h9.477c-4.411-5.278-5.927-13.906-6.442-18.816h-8.044C237.243,158.041,238.432,165.776,241.84,172.415Z" style="fill:#e2b088"/><path d="M269.842,172.415h7.9a9.438,9.438,0,0,0,1.475-.127c-4.332-5.288-5.829-13.817-6.34-18.689h-8.044C265.245,158.041,266.435,165.776,269.842,172.415Z" style="fill:#e2b088"/><rect height="14.721" style="fill:#c12140" width="32.578" x="242.637" y="65.348"/><rect height="14.721" style="fill:#c12140" width="32.578" x="64.786" y="65.348"/><path d="M170,109.045H33.344l5.425,18.082A12.175,12.175,0,0,0,50.431,135.8H289.569a12.175,12.175,0,0,0,11.662-8.677l5.425-18.082Z" style="fill:#f74f73"/>
    </symbol>
    <symbol id="ic-tengu" viewBox="0 0 512 512">
      <path fill="#FF473E" d="M427 119.7C427 53.6 373.4 0 307.3 0c-48.8 0-27.5 5.3-61.4 5.3S234.4 0 178.1 0c-66 0-119.6 53.6-119.6 119.7c-8.2 80.4-1 203.2 18.4 257.8c23.2 65.4 63.2 83.7 158.2 125.4c105 46 191.9-83.8 191.9-383.2z"></path><path fill="#EDC0A2" d="M384.8 168c-2.7 2.2-5.6 4.1-8.6 5.8c-9.3 5.2-19.5 7.8-30.1 7.8c-6.2 0-12.6-.9-19-2.7c-1.7 3.8-2.9 7.9-3.2 12.2h-.4v51.1h.2l-.1.1c0 20 16.3 36.3 36.3 36.3c20 0 36.3-16.3 36.3-36.3v-51.2h-.3c-.8-9-4.9-17.1-11.1-23.1z"></path><path fill="#EDC0A2" d="M207.6 186.5c-5.9 2.1-12.2 3.2-18.8 3.2c-7.3 0-14.9-1.3-22.6-4c-8.5-2.9-16.3-7.3-23.2-12.7c-3.7 5.2-6.1 11.4-6.7 18.1h-.3v51.1h.1v.1c0 20 16.3 36.3 36.3 36.3c20 0 36.3-16.3 36.3-36.3v-51.2h-.4c-.1-1.5-.4-3.1-.7-4.6z"></path><path fill="#EDC0A2" d="M222.2 435.2c-1.6 0-3.2-.5-4.6-1.5c-3.6-2.6-4.5-7.6-1.9-11.2c20.6-29.2 58.6-39.9 85.5-35.4c19.1 3.2 32.7 13.8 37.2 29.3c1.2 4.3-1.2 8.7-5.4 10c-4.3 1.2-8.7-1.2-10-5.4c-3.7-12.7-16.9-16.7-24.4-18c-21.4-3.6-53.2 5.3-69.8 28.8c-1.6 2.2-4.1 3.4-6.6 3.4z"></path><path fill="#2B3B47" d="M198.4 210.1c-.5-5.6-5.1-10-10.8-10c-5.7 0-10.4 4.4-10.9 10h-.1v15.4c0 6 4.9 11 11 11c6 0 11-4.9 11-11v-15.4h-.2z"></path><path fill="#2B3B47" d="M388.3 210.1c-.5-5.6-5.1-10-10.8-10c-5.7 0-10.4 4.4-10.9 10h-.1v15.4c0 6 4.9 11 11 11c6 0 11-4.9 11-11v-15.4h-.2z"></path><path fill="#2B3B47" d="M216.6 138c-1.2-13.9-13.4-24.3-27.3-23.3c-10.9-11.5-25.3-29.4-31.1-36.8c-4.3-5.6-12.3-6.6-17.9-2.3c-5.6 4.3-6.6 12.3-2.3 17.9c.8 1.1 3.6 4.7 7.5 9.5c-4.2-2.4-8.4-4.9-12.2-7.6c-4.8-3.3-9.2-6.7-12.9-9.7c-1.8-1.5-3.5-2.9-4.9-4.2c-1.4-1.3-2.7-2.4-3.7-3.3c-.5-.5-.9-.9-1.3-1.2c-.4-.4-.8-.8-1.1-1l-.9-.9c-6-5.8-15.4-6.5-22.2-1.4c-7.5 5.7-9 16.4-3.3 24c0 0 .3.3.8 1c.2.3.5.7.9 1.2s.9 1.1 1.4 1.8c1.1 1.4 2.3 2.9 3.8 4.6c1.5 1.8 3.1 3.7 5 5.8c7.5 8.4 18.2 19.1 30.9 28.4c3.1 2.4 6.5 4.6 9.8 6.7c3.4 2.1 6.8 4.1 10.2 5.9c3.5 1.8 6.9 3.4 10.3 4.8c3.4 1.4 6.8 2.6 10 3.6c1.6.5 3.2.9 4.7 1.3s3 .7 4.3 1c1.4.3 2.7.5 3.9.7c1.2.2 2.3.3 3.4.5c2 .3 3.7.4 4.8.5c1.1.1 1.7.1 1.7.1h.4c1.3.1 2.7.1 4 0c14.1-1.2 24.5-13.6 23.3-27.6z"></path><path fill="#2B3B47" d="M409 73.1c-8.4-3.7-18.3.1-22 8.5v.2s-.1 0-.1.2c-.2.3-.5.9-.8 1.5c-.8 1.4-2 3.4-3.6 5.7c-.8 1.1-1.7 2.4-2.7 3.6c-1 1.2-2.1 2.5-3.2 3.7c-.5.6-1.1 1.1-1.6 1.6c1.3-3.4.5-7.4-2.4-10c-3.7-3.2-9.3-2.9-12.6.9l-15 17.2c-.3 0-.7 0-1 .1c-14.1 1.4-24.5 13.9-23.2 28.1c1.4 14.1 13.9 24.5 28.1 23.2l1.5-.1s1.8-.2 4.8-.6c1.5-.2 3.4-.6 5.5-1c1.1-.2 2.2-.6 3.4-.9c.6-.2 1.2-.3 1.8-.5c.6-.2 1.2-.4 1.9-.6c2.6-.8 5.2-1.9 8-3.2c1.4-.7 2.8-1.4 4.1-2.2c1.3-.8 2.7-1.6 4.1-2.5c2.7-1.8 5.3-3.8 7.7-6c.6-.5 1.2-1.1 1.8-1.6l1.7-1.7c1.2-1.1 2.2-2.3 3.3-3.5l3-3.6c.9-1.2 1.8-2.4 2.7-3.7c1.7-2.5 3.2-4.9 4.5-7.3c1.3-2.4 2.5-4.7 3.5-7c1-2.2 1.9-4.4 2.6-6.3c1.5-3.9 2.5-7.3 3.2-9.7c.3-1.2.6-2.2.8-2.9c.1-.4.2-.8.2-1v-.2v-.1c1-7.5-2.8-15.1-10-18.3z"></path><path fill="#2B3B47" d="M278.5 336.4s-.2 0-.5.1c-.1 0-.4 0-.6.1c-.1.1-.3.1-.4.2c-.9.3-2.4.9-4.3 1.9c-3.9 2-9.5 5.8-16.3 10.5c-6.8 4.7-14.8 10.3-23.8 16c-9 5.7-19.1 11.4-30 16.1c-5.5 2.3-11.2 4.4-17.1 6c-5.9 1.6-12 2.8-18.1 3.3c-6.1.6-12.3.4-18.1-.3c-5.9-.7-11.4-2-16.4-3.7c-5-1.7-9.4-3.8-13.2-5.8c-3.8-2-6.8-4.1-9.3-5.8c-2.4-1.8-4.3-3.2-5.5-4.3c-1.2-1-1.9-1.6-1.9-1.6l-5.4-4.5c-13.1-10.8-15-30.2-4.1-43.3s30.2-15 43.3-4.1c3.4 2.8 6.2 6.4 8 10.2l.5 1c.3.7.8 1.6 1.4 2.8c.7 1.1 1.4 2.5 2.4 3.9s2.2 3 3.7 4.5s3.3 3.1 5.7 4.5c2.3 1.4 5.2 2.7 8.6 3.7c3.4 1 7.3 1.7 11.6 2c4.3.3 8.9.2 13.8-.2c9.7-.8 19.9-3 29.6-5.6c9.7-2.6 18.9-5.7 27-8.3c8.1-2.6 15-4.8 20.3-5.9c2.7-.5 4.9-.8 6.6-.8h1.3c.3 0 .5.1.7.1c.3 0 .5.1.5.1l.4.1c2 .3 3.4 2.2 3.1 4.2c-.6 1.4-1.9 2.7-3.5 2.9z"></path><path fill="#2B3B47" d="M299.8 328.5h2c.3 0 .7.1 1.1.1c.4 0 .8.1 1.3.2c.2 0 .5.1.7.1c.2 0 .4.1.6.1c1.8.3 3.8.9 6 1.6c2.2.7 4.6 1.7 7.1 2.8c5 2.1 10.7 4.8 16.6 7.4c3 1.3 6 2.5 9.1 3.7c3.1 1.1 6.2 2.1 9.3 2.9c3.1.7 6.1 1.4 9.1 1.6l1.1.1h1.1c.7 0 1.4 0 2.1.1c1.4-.1 2.7-.1 4-.3c2.6-.2 4.9-1 7-1.6c1-.4 2-.8 3-1.3c.9-.5 1.8-.9 2.7-1.5c.8-.5 1.6-1.1 2.4-1.6c.7-.6 1.4-1.1 2-1.6c.3-.2.6-.5.9-.8c.3-.3.6-.5.8-.8l1.4-1.4c1.7-1.8 2.6-2.9 2.6-2.9l.4-.4c4.7-5.3 12.8-5.7 18.1-1c5.3 4.7 5.7 12.8 1 18.1c-.4.5-1 1-1.4 1.4c0 0-1.6 1.3-4.5 3.7c-.8.6-1.6 1.1-2.6 1.8c-.5.3-1 .7-1.5 1c-.5.4-1 .7-1.6 1c-1.2.7-2.4 1.4-3.7 2.1c-1.4.7-2.8 1.3-4.3 2s-3.2 1.2-4.9 1.8c-1.7.5-3.6.9-5.4 1.3c-3.8.6-7.8 1.1-11.8.8c-2 0-4-.3-6.1-.5c-1-.2-2-.4-3-.5l-1.5-.3l-1.5-.4c-3.9-.9-7.7-2.3-11.3-3.8c-3.6-1.5-7-3.2-10.2-5c-3.2-1.8-6.3-3.6-9.1-5.4c-5.8-3.6-10.9-7.1-15.2-9.7c-2.2-1.3-4.2-2.5-5.9-3.4c-1.8-.9-3.3-1.6-4.5-2c-.2-.1-.3-.1-.4-.2c-.1 0-.2-.1-.3-.1c-.2-.1-.4-.1-.6-.2c-.2-.1-.3-.1-.6-.2c-.3 0-.5-.1-.7-.1c-.8-.1-1.3-.2-1.3-.2c-2.3-.3-3.9-2.5-3.6-4.8c.2-2.2 2-3.7 4-3.7z"></path><path fill="#D32A2A" d="M173.2 320.2h-1.4c-16.2-.4-31.4-7.6-42.7-20.2c-3.5-3.9-3.2-10 .8-13.5c3.9-3.5 10-3.2 13.5.8c7.8 8.7 18 13.6 28.9 13.9c10.8.2 21.3-4.2 29.4-12.4c3.7-3.8 9.7-3.8 13.5-.1c3.8 3.7 3.8 9.7.1 13.5c-11.6 11.6-26.5 18-42.1 18z"></path><path fill="#D32A2A" d="M475.8 239.5c-14.7-17.7-40.9-20.1-58.5-5.4l-.5.5c-.4.3-.8.8-1.8 1.4c-.2.2-.5.3-.8.5c-.3.2-.5.4-.9.6c-.7.4-1.5.8-2.3 1.3c-.9.5-1.9.9-3 1.4c-.5.3-1.1.5-1.7.8c-.6.3-1.2.5-1.9.8c-2.6 1.1-5.6 2.2-8.9 3.3c-3.3 1.1-6.9 2.2-10.8 3.3c-1.9.5-3.9 1-5.9 1.6c-2 .5-4.1 1-6.2 1.5c-4.2 1-8.6 1.9-13 2.8c-4.4.9-8.8 1.7-13.3 2.5c-4.4.8-8.8 1.5-13 2.1c-8.5 1.3-16.5 2.3-23.4 3.1c-6.9.8-12.6 1.4-16.6 1.8c-3.9.4-6.2.6-6.2.6l-.8.1c-10.5 1-19.4 9-20.9 19.9c-1.8 12.7 7.1 24.5 19.8 26.3c0 0 2.5.4 6.9 1c4.3.6 10.4 1.4 17.8 2.2c7.3.8 15.9 1.7 25.2 2.5c4.2.3 8.5.6 12.9.9c5.8 2.1 11.8 3.2 18.1 3.4h1.4c5.6 0 11-.8 16.3-2.4h3.5c2.5-.1 5-.1 7.5-.2c5-.2 9.8-.5 14.5-.9c4.7-.4 9.3-1 13.6-1.6c1.1-.2 2.2-.3 3.2-.5s2.1-.3 3.1-.6c2.1-.4 4-.8 5.9-1.2c1.9-.5 3.7-.9 5.4-1.4c.8-.2 1.7-.5 2.5-.7c.8-.3 1.6-.5 2.3-.7c2.8-.8 5.3-1.9 7-2.5c1.7-.7 2.5-1 2.5-1l4.6-1.8c3.9-1.6 7.6-3.8 11-6.6c17.6-14.8 20-41 5.4-58.7z"></path>
    </symbol>
    <symbol id="ic-ramen" viewBox="0 0 340 340">
      <path d="M88.353,50.356S84.068,82.9,56.3,107.974l9.717,10.892S88.81,101.135,92.863,79.1Z" style="fill:#f7954d"/><path d="M86.053,36.811v40.4s2.3,37.347-15.48,55.331l11.892,10.025s20.091-15.448,21.075-57.038V36.811Z" style="fill:#f7954d"/><polygon points="68.767 30.178 310.179 30.178 310.179 50.356 68.767 42.001 68.767 30.178" style="fill:#f2ab83"/><path d="M92.863,123.793s9.044,10.36,10.677,22.265,0,35.287,0,35.287l29.36,9.565L114.135,99.147,95.65,94.385Z" style="fill:#f7954d"/><path d="M99.732,30.178h53.352V70.026a126.841,126.841,0,0,0,4.351,33.065,275.152,275.152,0,0,0,12.615,36.4,94.522,94.522,0,0,1,6.925,25.86c.475,3.907.914,8.43,1.232,13.509L121.419,190.91s2.972-13.871.617-37.724a84.53,84.53,0,0,0-9.986-32.457c-5.474-9.947-12.318-24.891-12.318-44.908Z" style="fill:#fff099"/><path d="M144.568,186V173.032a162.781,162.781,0,0,0-1.9-25.144,108.186,108.186,0,0,0-12.692-35.936C118.341,91.1,118.07,73,118.068,72.844V30.178h-8V72.859c0,.816.224,20.235,12.924,42.992a100.235,100.235,0,0,1,11.774,33.277,154.744,154.744,0,0,1,1.8,23.9V187.7Z" style="fill:#f7954d"/><path d="M165.957,181.461v-8.429a162.781,162.781,0,0,0-1.9-25.144,108.205,108.205,0,0,0-12.691-35.936C139.73,91.1,139.459,73,139.457,72.844V30.178h-8V72.859c0,.816.224,20.235,12.924,42.992a100.235,100.235,0,0,1,11.774,33.277,154.744,154.744,0,0,1,1.8,23.9v10.126Z" style="fill:#f7954d"/><path d="M158.132,170a41.206,41.206,0,0,0-40.756,47.266h81.513A41.206,41.206,0,0,0,158.132,170Z" style="fill:#f7954d"/><path d="M185.888,217.266a29.644,29.644,0,1,0-57.627,0h7.265a22.644,22.644,0,1,1,43.1,0Z" style="fill:#d66b2f"/><path d="M159.24,217.266h10.3a14.277,14.277,0,1,0-24.922,0h10.3a7.277,7.277,0,1,1,4.33,0Z" style="fill:#d66b2f"/><path d="M202.841,175.091a36.773,36.773,0,0,0-36.367,42.175h72.733a36.773,36.773,0,0,0-36.366-42.175Z" style="fill:#fff099"/><path d="M202.158,182.816a29.628,29.628,0,0,0-29.249,34.45h7.123a22.645,22.645,0,1,1,44.251,0h7.123a29.623,29.623,0,0,0-29.248-34.45Z" style="fill:#f7954d"/><path d="M217.055,217.266a15.66,15.66,0,1,0-29.8,0h7.7a8.659,8.659,0,1,1,14.395,0Z" style="fill:#f7954d"/><path d="M97.725,173.032A41.428,41.428,0,0,0,56.3,214.46c0,.944.043,1.878.106,2.806h82.645c.062-.928.1-1.862.1-2.806A41.428,41.428,0,0,0,97.725,173.032Z" style="fill:#fff099"/><path d="M96.673,182.816A33.416,33.416,0,0,0,63.3,216.194c0,.359.016.715.027,1.072h7c-.014-.356-.027-.713-.027-1.072a26.378,26.378,0,0,1,52.756,0c0,.359-.013.716-.028,1.072h7c.012-.357.028-.713.028-1.072A33.416,33.416,0,0,0,96.673,182.816Z" style="fill:#f7954d"/><path d="M114.014,217.266c.022-.357.054-.71.054-1.072a17.4,17.4,0,1,0-34.79,0c0,.362.032.715.054,1.072h7a10.554,10.554,0,0,1-.055-1.072,10.4,10.4,0,1,1,20.79,0,10.554,10.554,0,0,1-.055,1.072Z" style="fill:#f7954d"/><path d="M32.494,164.423l23.831-6.737a12.5,12.5,0,0,1,14.439,6.169c5.788,10.885,14.791,30.765,17.589,53.411H53.67S45.5,186.808,32.494,164.423Z" style="fill:#728772"/><path d="M45.087,217.266s-3.771-17.79-15.266-32.31l21.069-3.485a9.38,9.38,0,0,1,9.678,4.606A93.739,93.739,0,0,1,71.6,217.266Z" style="fill:#3c4c3c"/><path d="M157.5,103.32a127.279,127.279,0,0,1-4.413-33.294v-7.6l-7.457,7.435a5.52,5.52,0,0,1-3.029,1.543L129.2,73.54a5.519,5.519,0,0,0-4.651,5.442l-.019,13.564a5.512,5.512,0,0,1-1.051,3.232l-7.964,10.98a5.517,5.517,0,0,0,.56,7.136l9.577,9.6a5.52,5.52,0,0,1,1.543,3.029l2.132,13.395a5.519,5.519,0,0,0,5.442,4.651l13.564.018a5.52,5.52,0,0,1,3.232,1.052l10.98,7.964a5.517,5.517,0,0,0,7.136-.56l3.889-3.877a92.72,92.72,0,0,0-3.523-9.678A275.157,275.157,0,0,1,157.5,103.32Z" style="fill:#f7954d"/><polygon points="68.767 30.178 310.179 30.178 310.179 10 68.767 18.355 68.767 30.178" style="fill:#ffd2b3"/><path d="M173.37,75.853l13.063.018a2.747,2.747,0,0,1,2.709,2.315l2.054,12.9a2.745,2.745,0,0,0,.768,1.508l9.224,9.249a2.748,2.748,0,0,1,.278,3.553l-7.67,10.574a2.751,2.751,0,0,0-.523,1.609l-.018,13.063a2.747,2.747,0,0,1-2.315,2.709l-12.9,2.054a2.745,2.745,0,0,0-1.508.768l-9.25,9.224a2.747,2.747,0,0,1-3.552.278l-10.574-7.67a2.751,2.751,0,0,0-1.609-.523l-13.063-.018a2.747,2.747,0,0,1-2.709-2.315l-2.054-12.9a2.752,2.752,0,0,0-.768-1.508l-9.224-9.249a2.748,2.748,0,0,1-.278-3.553l7.67-10.574a2.751,2.751,0,0,0,.523-1.609l.018-13.063a2.747,2.747,0,0,1,2.315-2.709l12.9-2.054a2.745,2.745,0,0,0,1.508-.768l9.249-9.224a2.748,2.748,0,0,1,3.553-.278l10.574,7.67A2.751,2.751,0,0,0,173.37,75.853Z" style="fill:#ffc7d8"/><path d="M166.124,130.111a19.519,19.519,0,0,1-13.051-4.978,17.016,17.016,0,0,1-5.677-12.445,14.788,14.788,0,0,1,4.623-11.118c3.774-3.544,7.441-4.056,9.855-3.866,5.625.448,9.226,4.912,9.618,5.419a4.131,4.131,0,1,1-6.537,5.052,6.338,6.338,0,0,0-3.768-2.238c-.4-.029-1.629-.114-3.512,1.655a6.582,6.582,0,0,0-2.018,4.994,8.866,8.866,0,0,0,2.921,6.388,11.352,11.352,0,0,0,16.009-.9,15.205,15.205,0,0,0-1.2-21.469,18.4,18.4,0,0,0-14.453-4.877c-5.218.67-9.829,3.81-13.333,9.084a4.131,4.131,0,1,1-6.881-4.572c4.8-7.225,11.607-11.737,19.164-12.706a26.627,26.627,0,0,1,21.008,6.912,23.465,23.465,0,0,1,1.857,33.134A19.56,19.56,0,0,1,166.124,130.111Z" style="fill:#fff"/><path d="M239.531,216.266H45.087c-1.98,69.792,35.7,92.438,53.039,98.682a14.475,14.475,0,0,1,6.95,5.331,499.048,499.048,0,0,0,74.466,0,14.474,14.474,0,0,1,6.952-5.331C203.832,308.7,241.511,286.056,239.531,216.266Z" style="fill:#e9ebfc"/><path d="M105.06,320.29a14.732,14.732,0,0,1,2.619,6.932v.009A3.1,3.1,0,0,0,110.761,330h63.1a3.1,3.1,0,0,0,3.081-2.769v-.009a14.743,14.743,0,0,1,2.619-6.932Z" style="fill:#acb9d4"/><path d="M47.4,248.859H237.221a139.456,139.456,0,0,0,2.044-16.621H45.354A139.257,139.257,0,0,0,47.4,248.859Z" style="fill:#acb9d4"/>
    </symbol>
    <symbol id="ic-sun" viewBox="0 0 16 16">
      <path d="M6 .278a.768.768 0 0 1 .08.858 7.208 7.208 0 0 0-.878 3.46c0 4.021 3.278 7.277 7.318 7.277.527 0 1.04-.055 1.533-.16a.787.787 0 0 1 .81.316.733.733 0 0 1-.031.893A8.349 8.349 0 0 1 8.344 16C3.734 16 0 12.286 0 7.71 0 4.266 2.114 1.312 5.124.06A.752.752 0 0 1 6 .278zM4.858 1.311A7.269 7.269 0 0 0 1.025 7.71c0 4.02 3.279 7.276 7.319 7.276a7.316 7.316 0 0 0 5.205-2.162c-.337.042-.68.063-1.029.063-4.61 0-8.343-3.714-8.343-8.29 0-1.167.242-2.278.681-3.286z"/>
    </symbol>
    <symbol id="ic-moon" viewBox="0 0 16 16">
      <path d="M8 11a3 3 0 1 1 0-6 3 3 0 0 1 0 6zm0 1a4 4 0 1 0 0-8 4 4 0 0 0 0 8zM8 0a.5.5 0 0 1 .5.5v2a.5.5 0 0 1-1 0v-2A.5.5 0 0 1 8 0zm0 13a.5.5 0 0 1 .5.5v2a.5.5 0 0 1-1 0v-2A.5.5 0 0 1 8 13zm8-5a.5.5 0 0 1-.5.5h-2a.5.5 0 0 1 0-1h2a.5.5 0 0 1 .5.5zM3 8a.5.5 0 0 1-.5.5h-2a.5.5 0 0 1 0-1h2A.5.5 0 0 1 3 8zm10.657-5.657a.5.5 0 0 1 0 .707l-1.414 1.415a.5.5 0 1 1-.707-.708l1.414-1.414a.5.5 0 0 1 .707 0zm-9.193 9.193a.5.5 0 0 1 0 .707L3.05 13.657a.5.5 0 0 1-.707-.707l1.414-1.414a.5.5 0 0 1 .707 0zm9.193 2.121a.5.5 0 0 1-.707 0l-1.414-1.414a.5.5 0 0 1 .707-.707l1.414 1.414a.5.5 0 0 1 0 .707zM4.464 4.465a.5.5 0 0 1-.707 0L2.343 3.05a.5.5 0 1 1 .707-.707l1.414 1.414a.5.5 0 0 1 0 .708z"/>
      </svg>
    </symbol>
</svg>